<?xml version="1.0" encoding="utf-8"?>
<!-- Generator: Adobe Illustrator 13.0.0, SVG Export Plug-In . SVG Version: 6.00 Build 14948)  -->
<!DOCTYPE svg PUBLIC "-//W3C//DTD SVG 1.1//EN" "http://www.w3.org/Graphics/SVG/1.1/DTD/svg11.dtd">
<svg version="1.1" id="Layer_1" xmlns="http://www.w3.org/2000/svg" xmlns:xlink="http://www.w3.org/1999/xlink" x="0px" y="0px"
	 width="113px" height="13px" viewBox="0 0 113 13" enable-background="new 0 0 113 13" xml:space="preserve">
<g>
	<polygon fill="#800080" points="0,0 0,13 3,13 3,10 8,10 8,9 3,9 3,1 13,1 13,9 10,9 10,13 11,13 11,10 16,10 16,0 	"/>
	<path fill="#708090" d="M49,0v13h3V1h12v12h3V0H49z M59,13h1V3h-1V13z"/>
	<polygon fill="#708090" points="84,1 84,0 71,0 71,8 81,8 81,12 71,12 71,13 84,13 84,7 74,7 74,1 	"/>
	<polygon fill="#800080" points="113,1 113,0 100,0 100,8 110,8 110,12 100,12 100,13 113,13 113,7 103,7 103,1 	"/>
	<path fill="#708090" d="M20,0v13h25V0H20z M42,12H23V1h9v9h1V1h9V12z"/>
	<polygon fill="#800080" points="93,0 93,12 88,12 88,13 96,13 96,0 	"/>
</g>
</svg>
