<?xml version="1.0" encoding="utf-8"?>
<!-- Generator: Adobe Illustrator 21.0.0, SVG Export Plug-In . SVG Version: 6.00 Build 0)  -->
<svg version="1.1" id="Layer_1" xmlns="http://www.w3.org/2000/svg" xmlns:xlink="http://www.w3.org/1999/xlink" x="0px" y="0px"
	 viewBox="0 0 600 400" style="enable-background:new 0 0 600 400;" xml:space="preserve">
<style type="text/css">
	.st0{fill-rule:evenodd;clip-rule:evenodd;fill:#DADADA;}
	.st1{fill:none;stroke:#6F6F6E;stroke-width:0.499;stroke-miterlimit:22.926;}
	.st2{fill:#575756;}
	.st3{fill-rule:evenodd;clip-rule:evenodd;fill:#FBBA00;}
	.st4{fill-rule:evenodd;clip-rule:evenodd;fill:#999999;}
	.st5{fill:#999999;}
	.st6{fill-rule:evenodd;clip-rule:evenodd;fill:#7AB8DF;}
	.st7{fill-rule:evenodd;clip-rule:evenodd;fill:#333333;}
	.st8{fill:#666666;}
	.st9{fill-rule:evenodd;clip-rule:evenodd;fill:#245A8A;}
	.st10{fill:#FBBA00;}
	.st11{fill:none;}
	.st12{fill:none;stroke:#378FC7;stroke-width:2;stroke-linecap:round;stroke-miterlimit:10;stroke-dasharray:2,4;}
	.st13{fill:#378FC7;}
</style>
<g>
	<path class="st0" d="M417,143.3L516,143l0.2,197.5l-58.1,0c-8,54.4-46.6,45.1-53.6,0l-109.9,0c-50.8,50.3-110.3,18-125.5-37.7
		l-27.6,0.2l0-4.4c-41.7,0.1-83.3,0.2-125,0.2C19.1,72.1,265.4-13.6,417,143.3"/>
	<path class="st1" d="M417,143.3L516,143l0.2,197.5l-58.1,0c-8,54.4-46.6,45.1-53.6,0l-109.9,0c-50.8,50.3-110.3,18-125.5-37.7
		l-27.6,0.2l0-4.4c-41.7,0.1-83.3,0.2-125,0.2C19.1,72.1,265.4-13.6,417,143.3z"/>
	<path class="st2" d="M123.9,218.7c0,5.9-4.8,10.7-10.7,10.7c-5.9,0-10.6-4.8-10.6-10.7c0-5.9,4.8-10.7,10.6-10.7
		C119.1,208.1,123.9,212.9,123.9,218.7"/>
	<path class="st3" d="M109.5,214.3L109.5,214.3c0,0.4,0.4,0.8,0.8,0.8c0.4,0,0.8-0.4,0.8-0.8c0-0.4-0.4-0.8-0.8-0.8
		C109.9,213.5,109.5,213.9,109.5,214.3 M110.4,219.3h-0.1v3.2v0c0,0.3-0.2,0.5-0.4,0.5c-0.2,0-0.4-0.2-0.4-0.5v-5.9h-0.1v2.7v0h0
		c0,0.3-0.2,0.5-0.4,0.5c-0.2,0-0.4-0.2-0.4-0.5v-2.7v0c0-0.5,0.4-0.9,0.8-0.9h0h1.9h0h0h0.1v0c0.4,0.1,0.7,0.4,0.7,0.9v0v2.7
		c0,0.3-0.2,0.5-0.4,0.5c-0.2,0-0.4-0.2-0.4-0.5v-2.6v-0.2h-0.1v5.9v0c0,0.3-0.2,0.5-0.4,0.5c-0.2,0-0.4-0.2-0.4-0.5V219.3z"/>
	<path class="st3" d="M115.3,214.5L115.3,214.5c0,0.4,0.4,0.8,0.8,0.8c0.4,0,0.8-0.4,0.8-0.8c0-0.4-0.4-0.8-0.8-0.8
		C115.7,213.7,115.3,214,115.3,214.5 M114.2,220.5h1v2c0,0.3,0.2,0.5,0.4,0.5c0.2,0,0.4-0.2,0.4-0.5h0v0v-2h0.1v2
		c0,0.3,0.2,0.5,0.4,0.5c0.2,0,0.4-0.2,0.4-0.5v0v-2h1l-1.2-3.8l-0.1-0.2h0.1l0.7,2.2l0,0c0.1,0.2,0.3,0.4,0.5,0.3
		c0.2-0.1,0.3-0.3,0.2-0.6l-0.7-2.3c-0.1-0.3-0.3-0.6-0.6-0.6v0H117h0h0h-1.6h0c-0.3,0-0.6,0.3-0.7,0.6l-0.7,2.3
		c-0.1,0.2,0,0.5,0.2,0.6c0.2,0.1,0.4-0.1,0.5-0.3l0,0l0.7-2.2h0.1L114.2,220.5z"/>
	<rect x="112.9" y="214.2" class="st3" width="0.2" height="8.6"/>
	<path class="st2" d="M442.4,351.2c0,5.9-4.8,10.7-10.6,10.7c-5.9,0-10.6-4.8-10.6-10.7c0-5.9,4.8-10.7,10.6-10.7
		C437.6,340.5,442.4,345.3,442.4,351.2"/>
	<rect x="432.8" y="346.5" class="st3" width="5.7" height="1.8"/>
	<rect x="428.9" y="350.4" class="st3" width="5.7" height="1.8"/>
	<rect x="425.1" y="354.3" class="st3" width="3.9" height="1.8"/>
	<rect x="432.8" y="346.5" class="st3" width="1.8" height="5.7"/>
	<rect x="428.9" y="350.4" class="st3" width="1.8" height="5.7"/>
	<path class="st4" d="M43.5,223.7c0.6,0.3,1.2,0.4,1.8,0.4l0.3,0.2l0.2,0.1c0.4,0.4,0.8,0.7,1.3,0.9c0.1,0,0.2,0.1,0.2,0.1
		c0.3,0.2,0.7,0.3,1,0.4c0.3,0.1,0.6,0.2,0.9,0.2l0,0l0,0h0l0.1,0c0.6,0.3,1.2,0.5,1.9,0.5c0.7,0.5,1.6,0.8,2.4,0.8
		c0.1,0,0.2,0,0.2,0c0.1,0,0.2,0.1,0.4,0.1l0,0l0.2,0.1l0,0l0,0l0.1,0.1l0,0c0.3,0.1,0.5,0.2,0.8,0.3l0.1,0c0.3,0.1,0.6,0.3,0.9,0.3
		c0.1,0.1,0.3,0.1,0.4,0.1c0.4,0.2,0.7,0.3,1.1,0.3l0.1,0l0,0l0.2,0.1l0,0l0,0c0.2,0.1,0.5,0.2,0.8,0.3l0,0l0.1,0.1
		c0.1,0,0.2,0.1,0.3,0.1c0.1,0.1,0.2,0.1,0.3,0.2l0.1,0l0,0l0,0c0.1,0,0.2,0.1,0.3,0.1c0.3,0.2,0.6,0.3,1,0.4c0.3,0.1,0.6,0.2,1,0.3
		c0.1,0,0.2,0.1,0.3,0.1c0.3,0.1,0.5,0.1,0.8,0.2l0.1,0c0.3,0.1,0.6,0.1,0.9,0.2c0.2,0.1,0.4,0.1,0.5,0.2c0.4,0.2,0.9,0.3,1.3,0.4
		l0.1,0c0.1,0,0.3,0.1,0.5,0.1l0,0l0.2,0.2c0.6,0.5,1.3,0.8,2.1,0.9c0.2,0.1,0.4,0.1,0.6,0.2l0.1,0.1c0.8,0.8,1.9,1.3,3,1.3
		c0.1,0.1,0.2,0.2,0.3,0.3c0.1,0.2,0.3,0.3,0.5,0.5c0,0.2-0.1,0.4-0.1,0.6c0,0.3-0.1,0.6-0.1,0.9l0,0.2c0,0.3,0,0.6,0,0.9
		c0,0.1,0,0.3,0,0.4l0,0c-0.1,0.3-0.2,0.7-0.2,1c-0.2,0.2-0.3,0.5-0.4,0.7c-0.2,0.3-0.3,0.7-0.4,1c-0.3,0.6-0.4,1.2-0.4,1.9
		c0,0.5,0,1,0.2,1.4v0l0,0.1c-0.1,0.4-0.2,0.9-0.2,1.4l0,0.2l0,0.1l0,0.1c-0.1,0.2-0.1,0.4-0.1,0.6l0,0.1c-0.2,0.4-0.3,0.8-0.4,1.3
		l0,0.1c-0.1,0.2-0.2,0.4-0.2,0.7c-0.1,0.2-0.1,0.5-0.2,0.8l0,0v0c0,0.1,0,0.2,0,0.2l0,0.2l0,0.2l0,0c0,0.1,0,0.1,0,0.2l0,0l0,0.2
		c0,0.1,0,0.2,0,0.3c-0.1,0.4-0.1,0.9,0,1.4l0,0.1c0,0.2,0,0.5,0,0.7c0,0.1,0,0.2,0,0.2c0,0.1,0,0.2,0,0.3c-0.1,0.2-0.1,0.5-0.1,0.7
		c0,0.1,0,0.2,0,0.3c-0.1,0.2-0.1,0.5-0.2,0.7c0,0.3-0.1,0.5-0.1,0.8c-0.1,0.5-0.1,1,0,1.5c0,0.2,0,0.4,0.1,0.7l0,0.1
		c-0.5,1-0.7,2.2-0.3,3.3l0,0l0,0.1c0,0.2,0,0.4,0,0.5c-0.1,0.3-0.1,0.6-0.1,0.9c0,0.1,0,0.2,0,0.3c0,0.2-0.1,0.4-0.1,0.5v0
		c0,0.1,0,0.2-0.1,0.4l0,0.1c-0.1,0.4-0.2,0.8-0.2,1.2l0,0.1c-0.1,0.4-0.1,0.9,0,1.4l0,0.1c-0.2,0.4-0.3,0.7-0.4,1.1
		c-0.1,0.3-0.1,0.5-0.2,0.8c0,0.3-0.1,0.6-0.1,0.8c0,0.5,0,0.9,0.2,1.4c0,0.1,0,0.2,0.1,0.4l0,0.1c-0.1,0.4-0.1,0.9-0.1,1.3
		c0,0.1,0,0.2,0,0.4c-0.1,0.5,0,1.1,0.1,1.6c0,0.3,0,0.6,0,0.8c0,0.4,0.1,0.8,0.2,1.2l0,0.1c-0.2,0.5-0.4,1.1-0.4,1.6l0,0.1
		c-0.1,0.4-0.2,0.9-0.2,1.3c-0.1,0.3-0.1,0.6-0.1,0.9c0,0.5,0.1,1,0.2,1.5l0.2,0.6c-0.2,0.7-0.3,1.5-0.1,2.3c0,0.3,0.1,0.7,0.2,1
		l0,0.1c-0.1,0.3-0.1,0.6-0.1,0.9c0,0.2,0,0.3,0,0.5c0,0.3,0,0.6,0,0.9l0,0.1v0.2c-0.5,0-1.1,0-1.6,0.2c-0.6-0.2-1.2-0.3-1.8-0.2
		c-0.2,0-0.4,0-0.7,0.1c-0.7-0.4-1.5-0.7-2.4-0.6l-0.2,0c-0.2,0-0.5,0-0.7,0l-0.2,0c-0.2,0-0.5,0-0.7,0c-0.6,0-1.2,0.1-1.9,0.3
		c-0.1,0-0.2,0-0.2,0c-0.2,0-0.5-0.1-0.8,0c-0.1,0-0.2,0-0.2,0c-0.2,0-0.5-0.1-0.8-0.1l-0.2,0c-0.1,0-0.2,0-0.4-0.1
		c-0.3,0-0.6-0.1-0.8,0l-0.2,0c-0.3,0-0.5-0.1-0.8-0.1c-0.1,0-0.3,0-0.4,0c-0.4-0.1-0.9-0.1-1.3,0l-0.1,0c-0.5,0-1,0-1.5,0.2
		l-0.6,0.2l0,0c-0.1,0-0.3,0.1-0.4,0.2c-0.1,0-0.2-0.1-0.3-0.1l0,0c-0.5-0.1-0.9-0.2-1.4-0.2l-0.2,0l-0.1,0c-0.2,0-0.3,0-0.5,0
		c-0.4-0.1-0.8-0.1-1.3-0.1c-0.3-0.1-0.6-0.1-1-0.1c-0.2,0-0.4,0-0.7,0c-0.3,0-0.5-0.1-0.8-0.1c-0.2,0-0.5,0-0.7,0
		c-0.2,0-0.3,0-0.5,0l-0.1,0l0,0l-0.2,0l-0.2,0c-0.3,0-0.6-0.1-0.9-0.1c-0.1,0-0.1,0-0.2,0c-0.3-0.1-0.6-0.1-0.9-0.1
		c-0.3,0-0.6,0-0.8,0.1c-0.2,0-0.3,0-0.5,0c-0.2,0-0.5,0-0.7,0l-0.2,0c-0.4-0.1-0.8-0.2-1.2-0.2c-0.3,0-0.6,0-0.8,0
		c-0.3,0-0.6,0-0.9,0l-0.1,0c-0.1,0-0.1,0-0.2,0l0,0l-0.2,0h0c-0.4-0.1-0.8-0.1-1.1-0.1c-0.1,0-0.2,0-0.4,0c-0.3,0-0.5,0-0.8,0
		c-0.2,0-0.5,0-0.8,0c-0.1,0-0.2,0-0.3,0l-0.2,0h0h0c-0.4-0.1-0.8,0-1.3,0c0.1-0.2,0.2-0.5,0.3-0.7l0.1-0.2c0.1-0.4,0.2-0.9,0.2-1.4
		l0-0.2l0-0.2c0-0.1,0-0.2,0.1-0.3l0-0.2l0,0l0-0.2l0-0.2v0l0,0l0-0.2v0c0-0.1,0-0.2,0-0.4c0-0.2,0.1-0.4,0.1-0.6
		c0.1-0.3,0.1-0.6,0.1-1c0-0.4,0-0.7,0-1.1v-0.1c0-0.1,0-0.2,0-0.3c0-0.1,0-0.2,0-0.3c0-0.4,0-0.8-0.1-1.3c0-0.1,0-0.2,0-0.3
		c0-0.2,0-0.3,0-0.5c0-0.3,0-0.6,0-0.9c0-0.2,0-0.4,0-0.7l0-0.1c0.1-0.5,0.1-0.9,0.1-1.4l0,0l0,0c0.1-0.4,0.1-0.8,0-1.2
		c0-0.2,0-0.5,0-0.7l0-0.1v0v-0.2l0,0c0-0.3,0-0.7,0-1c0.1-0.6,0-1.2-0.2-1.8l-0.1-0.3c0-0.2,0.1-0.3,0.1-0.5l0,0c0-0.1,0-0.2,0-0.3
		c0-0.1,0-0.2,0-0.3c0.1-0.4,0.2-0.9,0.2-1.4v-0.2c0-0.3,0-0.7,0-1.1l0-0.2c0-0.2,0-0.3,0-0.5c0.1-0.4,0.1-0.8,0.1-1.2l0-0.2
		c0-0.2,0-0.4,0-0.7c0-0.2,0-0.3,0-0.5c0-0.2,0-0.4,0-0.6c0-0.3,0-0.5,0-0.8c0-0.3,0.1-0.5,0-0.8l0-0.2c0-0.3,0.1-0.5,0.1-0.8
		c0.1-0.3,0.1-0.6,0.1-0.9l0-0.2l0-0.1c0-0.2,0-0.3,0-0.4c0.1-0.2,0.1-0.5,0.1-0.7c0.1-0.2,0.1-0.5,0.1-0.7c0.1-0.3,0.1-0.5,0.2-0.8
		c0-0.1,0-0.2,0-0.3c0.1-0.3,0.1-0.5,0.2-0.8c0-0.1,0.1-0.2,0.1-0.3l0,0c0.1-0.3,0.1-0.5,0.2-0.8c0-0.1,0-0.2,0-0.3l0,0
		c0-0.1,0-0.2,0.1-0.4l0-0.2c0-0.1,0-0.2,0-0.3c0.1-0.3,0.1-0.6,0.1-0.9l0,0v0l0,0c0-0.2,0.1-0.5,0.1-0.7l0,0v0v0c0-0.1,0-0.2,0-0.2
		l0-0.1c0.1-0.2,0.1-0.4,0.1-0.6c0.1-0.3,0.1-0.6,0.2-1c0.1-0.3,0.1-0.5,0.1-0.8c0.1-0.2,0.1-0.3,0.2-0.5c0.1-0.2,0.1-0.3,0.2-0.5
		c0.1-0.3,0.2-0.7,0.3-1.1v0c0.1-0.2,0.1-0.4,0.2-0.5l0.1-0.2c0.1-0.2,0.2-0.4,0.2-0.7c0-0.1,0.1-0.2,0.1-0.4c0-0.1,0.1-0.2,0.1-0.4
		l0,0c0.1-0.3,0.1-0.5,0.2-0.8l0,0l0-0.1c0.1-0.3,0.2-0.7,0.2-1.1c0-0.1,0.1-0.3,0.1-0.4c0.1-0.3,0.1-0.5,0.2-0.8l0-0.1
		c0.2-0.4,0.3-0.8,0.4-1.3c0.1-0.4,0.1-0.9,0-1.4c1-0.9,1.5-2.3,1.3-3.6c0-0.1,0-0.2,0.1-0.3c0.1-0.2,0.1-0.4,0.1-0.6l0-0.1l0,0
		c0.2-0.5,0.4-1.1,0.4-1.6c0.1-0.3,0.1-0.6,0.1-1c0-0.1,0-0.2,0-0.2l0,0l0,0c0-0.2,0-0.4,0.1-0.6c0.1-0.2,0.1-0.4,0.2-0.6
		c0.1-0.2,0.1-0.4,0.1-0.6c0.1-0.2,0.1-0.4,0.2-0.5c0.1-0.3,0.2-0.6,0.2-0.9l0-0.2c0.2-0.5,0.3-0.9,0.3-1.4c0.1-0.3,0.1-0.5,0.1-0.8
		c0-0.1,0.1-0.3,0.1-0.4l0.1-0.2l0.1-0.2c0.1-0.1,0.1-0.1,0.2-0.2l0.1-0.1c0.1-0.1,0.1-0.1,0.2-0.2c0.1-0.1,0.2-0.2,0.2-0.3
		c0.1-0.1,0.2-0.1,0.2-0.2l0.1-0.1c0.1,0,0.2,0,0.3,0l0.2,0c0.1,0,0.3,0,0.4,0l0.1,0.1l0,0C42,223.6,42.8,223.7,43.5,223.7"/>
	<path class="st4" d="M91.6,228c0.6,0.3,1.2,0.4,1.8,0.4l0.3,0.2l0.2,0.1c0.4,0.4,0.8,0.7,1.3,0.9c0.1,0,0.2,0.1,0.2,0.1
		c0.3,0.2,0.7,0.3,1,0.4c0.3,0.1,0.6,0.2,0.9,0.2l0,0l0,0h0l0.1,0c0.6,0.3,1.2,0.5,1.9,0.5c0.7,0.5,1.6,0.8,2.4,0.8
		c0.1,0,0.2,0,0.2,0c0.1,0,0.2,0.1,0.4,0.1l0,0l0.2,0.1l0,0l0,0l0.1,0.1l0,0c0.3,0.1,0.5,0.2,0.8,0.3l0.1,0c0.3,0.1,0.6,0.3,0.9,0.3
		c0.1,0.1,0.3,0.1,0.4,0.2c0.4,0.2,0.7,0.3,1.1,0.3l0.1,0l0,0l0.2,0.1l0,0l0,0c0.2,0.1,0.5,0.2,0.8,0.3l0,0l0.1,0.1
		c0.1,0,0.2,0.1,0.3,0.1c0.1,0.1,0.2,0.1,0.3,0.2l0.1,0l0,0l0,0c0.1,0,0.2,0.1,0.3,0.1c0.3,0.2,0.6,0.3,1,0.4c0.3,0.1,0.6,0.2,1,0.3
		c0.1,0,0.2,0.1,0.3,0.1c0.3,0.1,0.5,0.1,0.8,0.2l0.1,0c0.3,0.1,0.6,0.1,0.9,0.2c0.2,0.1,0.4,0.1,0.5,0.2c0.4,0.2,0.9,0.3,1.3,0.4
		l0.1,0c0.1,0,0.3,0.1,0.5,0.1l0,0l0.2,0.2c0.6,0.5,1.3,0.8,2.1,0.9c0.2,0.1,0.4,0.1,0.6,0.2l0.1,0.1c0.8,0.8,1.9,1.3,3,1.3
		c0.1,0.1,0.2,0.2,0.3,0.3c0.1,0.2,0.3,0.3,0.5,0.5c0,0.2-0.1,0.4-0.1,0.6c0,0.3-0.1,0.6-0.1,0.9l0,0.2c0,0.3,0,0.6,0,0.9
		c0,0.1,0,0.3,0,0.4l0,0c-0.1,0.3-0.2,0.7-0.2,1c-0.2,0.2-0.3,0.5-0.4,0.7c-0.2,0.3-0.3,0.7-0.4,1c-0.3,0.6-0.4,1.2-0.4,1.9
		c0,0.5,0,1,0.2,1.4v0l0,0.1c-0.1,0.4-0.2,0.9-0.2,1.4l0,0.2l0,0.1l0,0.1c-0.1,0.2-0.1,0.4-0.1,0.6l0,0.1c-0.2,0.4-0.3,0.8-0.4,1.3
		l0,0.1c-0.1,0.2-0.2,0.4-0.2,0.7c-0.1,0.2-0.1,0.5-0.2,0.8l0,0l0,0c0,0.1,0,0.2,0,0.2l0,0.2l0,0.2l0,0c0,0.1,0,0.1,0,0.2v0l0,0.2
		c0,0.1,0,0.2,0,0.3c-0.1,0.4-0.1,0.9,0,1.4l0,0.1c0,0.2,0,0.5,0,0.7c0,0.1,0,0.2,0,0.2c0,0.1,0,0.2,0,0.3c-0.1,0.2-0.1,0.5-0.1,0.7
		c0,0.1,0,0.2,0,0.3c-0.1,0.2-0.1,0.5-0.2,0.7c0,0.3-0.1,0.5-0.1,0.8c-0.1,0.5-0.1,1,0,1.5c0,0.2,0,0.4,0.1,0.7l0,0.1
		c-0.5,1-0.7,2.2-0.3,3.3l0,0l0,0.1c0,0.2,0,0.4,0,0.5c-0.1,0.3-0.1,0.6-0.1,0.9c0,0.1,0,0.2,0,0.3c0,0.2-0.1,0.4-0.1,0.5l0,0
		c0,0.1,0,0.2-0.1,0.4l0,0.1c-0.1,0.4-0.2,0.8-0.2,1.2l0,0.1c-0.1,0.4-0.1,0.9,0,1.4l0,0.1c-0.2,0.4-0.3,0.7-0.4,1.1
		c-0.1,0.3-0.1,0.5-0.2,0.8c0,0.3-0.1,0.6-0.1,0.8c0,0.5,0,0.9,0.2,1.4c0,0.1,0,0.2,0.1,0.4l0,0.1c-0.1,0.4-0.1,0.9-0.1,1.3
		c0,0.1,0,0.2,0,0.4c-0.1,0.5,0,1.1,0.1,1.6c0,0.3,0,0.6,0,0.8c0,0.4,0.1,0.8,0.2,1.2l0,0.1c-0.2,0.5-0.4,1.1-0.4,1.6l0,0.1
		c-0.1,0.4-0.2,0.9-0.2,1.3c-0.1,0.3-0.1,0.6-0.1,0.9c0,0.5,0.1,1,0.2,1.5l0.2,0.6c-0.2,0.7-0.3,1.5-0.1,2.3c0,0.3,0.1,0.7,0.2,1
		l0,0.1c-0.1,0.3-0.1,0.6-0.1,0.9c0,0.2,0,0.3,0,0.5c0,0.3,0,0.6,0,0.9l0,0.1l0,0.2c-0.5,0-1.1,0-1.6,0.2c-0.6-0.2-1.2-0.3-1.8-0.2
		c-0.2,0-0.4,0-0.7,0.1c-0.7-0.4-1.5-0.7-2.4-0.6l-0.2,0c-0.2,0-0.5,0-0.7,0l-0.2,0c-0.2,0-0.5,0-0.7,0c-0.6,0-1.2,0.1-1.9,0.3
		c-0.1,0-0.2,0-0.2,0c-0.2,0-0.5-0.1-0.8,0c-0.1,0-0.2,0-0.2,0c-0.2,0-0.5-0.1-0.8-0.1l-0.2,0c-0.1,0-0.2,0-0.4-0.1
		c-0.3,0-0.6-0.1-0.8,0l-0.2,0c-0.3,0-0.5-0.1-0.8-0.1c-0.1,0-0.3,0-0.4,0c-0.4-0.1-0.9-0.1-1.3,0l-0.1,0c-0.5,0-1,0-1.5,0.2
		l-0.6,0.2l0,0c-0.1,0-0.3,0.1-0.4,0.2c-0.1,0-0.2-0.1-0.3-0.1l0,0c-0.5-0.1-0.9-0.2-1.4-0.2l-0.2,0l-0.1,0c-0.2,0-0.3,0-0.5,0
		c-0.4-0.1-0.8-0.1-1.3-0.1c-0.3-0.1-0.6-0.1-1-0.1c-0.2,0-0.4,0-0.7,0c-0.3,0-0.5-0.1-0.8-0.1c-0.2,0-0.5,0-0.7,0
		c-0.2,0-0.3,0-0.5,0l-0.1,0l0,0l-0.2,0l-0.2,0c-0.3,0-0.6-0.1-0.9-0.1c-0.1,0-0.1,0-0.2,0c-0.3-0.1-0.6-0.1-0.9-0.1
		c-0.3,0-0.6,0-0.8,0.1c-0.2,0-0.3,0-0.5,0c-0.2,0-0.5,0-0.7,0l-0.2,0c-0.4-0.1-0.8-0.2-1.2-0.2c-0.3,0-0.6,0-0.8,0
		c-0.3,0-0.6,0-0.9,0l-0.1,0c-0.1,0-0.1,0-0.2,0l0,0l-0.2,0l0,0c-0.4-0.1-0.8-0.1-1.1-0.1c-0.1,0-0.2,0-0.4,0c-0.3,0-0.6,0-0.8,0
		c-0.2,0-0.5,0-0.8,0c-0.1,0-0.2,0-0.3,0l-0.2,0h0c-0.4-0.1-0.8,0-1.3,0c0.1-0.2,0.2-0.5,0.3-0.7l0.1-0.2c0.1-0.4,0.2-0.9,0.2-1.4
		l0-0.2l0-0.2c0-0.1,0-0.2,0.1-0.3l0-0.2l0,0l0-0.2l0-0.2v0l0,0l0-0.2v0c0-0.1,0-0.2,0-0.4c0-0.2,0.1-0.4,0.1-0.6
		c0.1-0.3,0.1-0.6,0.1-1c0-0.4,0-0.7,0-1.1v-0.1c0-0.1,0-0.2,0-0.3c0-0.1,0-0.2,0-0.3c0-0.4,0-0.8-0.2-1.3c0-0.1,0-0.2,0-0.3
		c0-0.2,0-0.3,0-0.5c0-0.3,0-0.6,0-0.9c0-0.2,0-0.4,0-0.7l0-0.1c0.1-0.5,0.1-0.9,0.1-1.4l0,0l0,0c0.1-0.4,0.1-0.8,0-1.2
		c0-0.2,0-0.5,0-0.7l0-0.1v0v-0.2v0c0-0.3,0-0.7,0-1c0.1-0.6,0-1.2-0.2-1.8l-0.1-0.3c0-0.2,0.1-0.3,0.1-0.5l0,0c0-0.1,0-0.2,0-0.3
		c0-0.1,0-0.2,0-0.3c0.1-0.4,0.2-0.9,0.2-1.4v-0.2c0-0.3,0-0.7,0-1.1l0-0.2c0-0.2,0-0.3,0-0.5c0.1-0.4,0.1-0.8,0.1-1.2l0-0.2
		c0-0.2,0-0.4,0-0.7c0-0.2,0-0.3,0-0.5c0-0.2,0-0.4,0-0.6c0-0.3,0-0.5,0-0.8c0-0.3,0.1-0.5,0-0.8l0-0.2c0-0.3,0.1-0.5,0.1-0.8
		c0.1-0.3,0.1-0.6,0.1-0.9v-0.2l0-0.1c0-0.2,0-0.3,0-0.4c0.1-0.2,0.1-0.5,0.1-0.7c0.1-0.2,0.1-0.5,0.1-0.7c0.1-0.3,0.1-0.5,0.2-0.8
		c0-0.1,0-0.2,0-0.3c0.1-0.3,0.1-0.5,0.2-0.8c0-0.1,0.1-0.2,0.1-0.3l0,0c0.1-0.3,0.1-0.5,0.2-0.8c0-0.1,0-0.2,0-0.3v0
		c0-0.1,0-0.2,0.1-0.4l0-0.2c0-0.1,0-0.2,0-0.3c0.1-0.3,0.1-0.6,0.1-0.9l0,0l0,0l0,0c0-0.2,0.1-0.5,0.1-0.7l0,0v0l0,0
		c0-0.1,0-0.2,0-0.2l0-0.1c0.1-0.2,0.1-0.4,0.1-0.6c0.1-0.3,0.1-0.6,0.2-1c0.1-0.3,0.1-0.5,0.1-0.8c0.1-0.2,0.1-0.3,0.2-0.5
		c0.1-0.2,0.1-0.3,0.2-0.5c0.1-0.3,0.2-0.7,0.3-1.1v0c0.1-0.2,0.1-0.4,0.2-0.5l0.1-0.2c0.1-0.2,0.2-0.4,0.2-0.7
		c0-0.1,0.1-0.2,0.1-0.4c0-0.1,0.1-0.2,0.1-0.4l0,0c0.1-0.3,0.1-0.5,0.2-0.8l0,0l0-0.1c0.1-0.3,0.2-0.7,0.2-1.1
		c0-0.1,0.1-0.3,0.1-0.4c0.1-0.3,0.1-0.5,0.2-0.8l0-0.1c0.2-0.4,0.3-0.8,0.4-1.3c0.1-0.4,0.1-0.9,0-1.4c1-0.9,1.5-2.3,1.3-3.6
		c0-0.1,0-0.2,0.1-0.3c0.1-0.2,0.1-0.4,0.1-0.6l0-0.1l0,0c0.2-0.5,0.4-1.1,0.4-1.6c0.1-0.3,0.1-0.6,0.1-1c0-0.1,0-0.2,0-0.2l0,0
		c0-0.2,0-0.4,0.1-0.6c0.1-0.2,0.1-0.4,0.2-0.6c0.1-0.2,0.1-0.4,0.1-0.6c0.1-0.2,0.1-0.4,0.2-0.5c0.1-0.3,0.2-0.6,0.2-0.9l0-0.2
		c0.2-0.4,0.3-0.9,0.3-1.4c0.1-0.3,0.1-0.5,0.1-0.8c0-0.1,0.1-0.3,0.1-0.4l0.1-0.2l0.1-0.2c0.1-0.1,0.1-0.1,0.2-0.2l0.1-0.1
		c0.1-0.1,0.1-0.1,0.2-0.2c0.1-0.1,0.2-0.2,0.2-0.3c0.1-0.1,0.2-0.1,0.2-0.2l0.1-0.1c0.1,0,0.2,0,0.3,0l0.2,0c0.1,0,0.3,0,0.4,0
		l0.1,0.1l0,0C90,227.9,90.8,228,91.6,228"/>
	<rect x="458.5" y="153.9" class="st4" width="50.6" height="45.5"/>
	<path class="st4" d="M509.8,153.2L509.8,153.2h-52v46.9h52V153.2z M508.4,198.7h-49.2v-44.1h49.2V198.7z"/>
	<rect x="481.9" y="203.6" class="st4" width="27.2" height="77"/>
	<rect x="445.4" y="285" class="st4" width="63.7" height="22.5"/>
	<path class="st4" d="M311.7,336.1l-16.1-12.6c4.7-18.8,4.8-19.5,7-33.7l0.7-4.7h89.6v51.1H311.7z"/>
	<path class="st4" d="M393.6,284.3L393.6,284.3h-90.9c-3.1,19.9-2.6,18.1-7.9,39.4l16.6,13.1h82.2V284.3z M392.2,285.7v49.7h-80.3
		l-15.6-12.2c4.6-18.4,4.7-19.2,6.9-33.3l0.6-4.2H392.2z"/>
	<path class="st4" d="M173.4,80.9c21-6.3,41.8-9.5,61.8-9.5c0.6,0,1.1-0.1,1.7-0.2c0.3,0,0.6-0.1,0.9-0.1v38.8
		c-17.1,0.3-36.1,3.3-52.3,8.2L173.4,80.9z"/>
	<path class="st4" d="M238.5,70.4L238.5,70.4c-1.1,0-2.1,0.3-3.2,0.3c-21.9,0-42.9,3.7-62.7,9.7l12.6,38.6c16.1-5,35.6-8.2,53.4-8.4
		L238.5,70.4L238.5,70.4z M237.2,71.9v37.3c-16.8,0.3-35.3,3.2-51.1,8l-11.7-35.9c20.7-6.1,41.2-9.2,61-9.2c0.6,0,1.2-0.1,1.8-0.2
		C237.1,72,237.1,72,237.2,71.9"/>
	<path class="st4" d="M291.3,116.8c-16.3-4.8-33.3-7.2-50.5-7.2h0V71.3c21.6,0.5,41.6,3.7,59.7,9.5L291.3,116.8z"/>
	<path class="st4" d="M332.8,135.5c-6.6-4.1-38.1-17-38.7-17.5l9.6-37.2c20.7,6.2,33.2,13.3,49.1,23.6L332.8,135.5z"/>
	<path class="st4" d="M240,70.5L240,70.5v39.7c0.2,0,0.5,0,0.7,0c17.8,0,34.9,2.6,51,7.4l9.5-37.4C281.9,74,261.4,71,240,70.5
		 M241.4,72c21,0.6,40.5,3.7,58.2,9.2l-8.8,34.7c-15.9-4.6-32.5-7-49.3-7V72z"/>
	<path class="st4" d="M383.3,177.9c-16.4-16.6-14.3-20.5-48.7-40.9l19.5-30.7c31.5,19.7,38,26.4,55.8,46.2L383.3,177.9z"/>
	<path class="st5" d="M383.3,177.9c-16.4-16.6-14.3-20.5-48.7-40.9l19.5-30.7c31.5,19.7,38,26.4,55.8,46.2L383.3,177.9z"/>
	<path class="st5" d="M332.1,157.4l-0.1,38.1h39.3C360.7,181.2,347.5,168.4,332.1,157.4"/>
	<path class="st5" d="M373.3,198.6h-41.3v38.2h36.7v-0.1h2.2l0.7,0.1h10.9v-24C379.7,208,376.5,203.3,373.3,198.6"/>
	<path class="st4" d="M373.6,197.9L373.6,197.9h-42.4v39.6h38.1v-0.1h1.5v0.1h12.3v-24.9C380.3,207.6,376.9,202.6,373.6,197.9
		 M331.4,156.1L331.4,156.1l-0.1,40.2h41.3C361.4,180.7,347.3,167.2,331.4,156.1 M372.9,199.3L372.9,199.3c3.2,4.6,6.2,9.1,8.8,13.7
		v23.1h-9.5v-0.1h-1.4h-1.5l-1.4,0.1h-35.3v-36.8H372.9z M332.8,158.8c14.5,10.5,27,22.6,37.1,36.1h-37.2L332.8,158.8z"/>
	<rect x="385.2" y="214.3" class="st4" width="80.8" height="22.4"/>
	<path class="st4" d="M466.7,213.6L466.7,213.6h-82.2v23.9h82.2V213.6z M465.3,236.1h-79.4V215h79.4V236.1z"/>
	<path class="st6" d="M369.3,239L369.3,239h-57.9c3.3,9.4,6.6,18.9,9.9,29h48V239z"/>
	<rect x="371.5" y="239.7" class="st4" width="94.5" height="27.6"/>
	<path class="st4" d="M466.7,239L466.7,239h-95.9v29h95.9V239z M465.3,266.6h-93.1v-26.2h93.1V266.6z"/>
	<path class="st4" d="M311.3,237.3c-7.8-14.3-20.8-34.2-44.5-44.3v-12.1h61.6v56.4H311.3z"/>
	<path class="st4" d="M329,180.2L329,180.2h-63v13.2c22,9.2,35.2,26.8,44.8,44.6H329V180.2z M327.6,181.6v55h-15.9
		c-7.8-14.3-20.8-33.9-44.3-44.1v-10.9H327.6z"/>
	<path class="st4" d="M161.3,147.3c10.4-6.2,16.4-8.4,27.9-12.1l16.1,50.9c-1.9,0.5-3.6,1-5.2,1.4c-4.5,1.2-8.5,2.2-13.6,4.5
		L161.3,147.3z"/>
	<path class="st4" d="M189.7,134.3L189.7,134.3c-12.4,4-18.3,6.2-29.3,12.8l26,45.8c7.3-3.3,12.2-4,19.9-6.3L189.7,134.3z
		 M188.8,136.1l15.7,49.5c-1.6,0.4-3.1,0.8-4.5,1.2c-4.4,1.2-8.2,2.2-13.1,4.2l-24.7-43.5C172.1,141.8,177.8,139.7,188.8,136.1"/>
	<path class="st4" d="M71.9,156.1c12.9-17.8,28.4-33.3,46.1-46.1l20.3,32.4c-14.3,10.1-27,22.3-37.8,36.2L71.9,156.1z"/>
	<path class="st4" d="M118.2,109L118.2,109c-18.1,13.1-34.1,29-47.2,47.2l29.7,23.3c11-14.2,24-26.7,38.6-37L118.2,109z M117.8,111
		l19.6,31.2c-13.9,10-26.3,21.9-37,35.4L72.9,156C85.5,138.7,100.6,123.6,117.8,111"/>
	<path class="st4" d="M120.8,108c16.5-11.6,32.7-20.1,49.3-25.9l12.9,37.3c-14.8,5.1-28.9,12.2-41.9,21.1L120.8,108z"/>
	<path class="st4" d="M170.5,81.3L170.5,81.3c-18.3,6.3-35.1,15.6-50.7,26.6l21.1,33.6c13.2-9.1,27.6-16.4,43-21.6L170.5,81.3z
		 M169.7,83l12.4,35.9c-14.4,5-28.1,11.9-40.8,20.5l-19.6-31.3C137.8,97,153.5,88.7,169.7,83"/>
	<path class="st4" d="M113.1,185.7c10.5-12.2,22.9-22.9,36.7-31.8l10.8,18.8l-29.7,26.5L113.1,185.7z"/>
	<path class="st4" d="M150,152.9L150,152.9c-14.3,9.1-27.1,20.2-37.9,32.8l18.8,14.4l30.5-27.3L150,152.9z M149.6,154.9l10.1,17.7
		l-28.8,25.8l-16.7-12.8C124.4,173.8,136.3,163.5,149.6,154.9"/>
	<path class="st4" d="M133.4,201.4l29-25.3l13.2,21.7c-8.8,6.5-16.2,13.9-21.4,21.4L133.4,201.4z"/>
	<path class="st4" d="M162.5,175L162.5,175l-30.2,26.4l21.9,18.8c5.9-8.6,14-16.2,22.2-22.3L162.5,175z M162.2,177.2l12.4,20.4
		c-8.4,6.3-15.5,13.4-20.6,20.6l-19.5-16.8L162.2,177.2z"/>
	<path class="st4" d="M193.2,133.6c10.4-2.9,21.2-4.8,32.2-5.7l2.4,26.6l-25.3,6.7L193.2,133.6z"/>
	<path class="st4" d="M226,127.2L226,127.2c-11.6,0.9-22.9,2.9-33.7,5.9l9.7,29l26.5-7L226,127.2z M224.7,128.7L227,154l-24.1,6.4
		l-8.9-26.3C204,131.3,214.3,129.5,224.7,128.7"/>
	<path class="st4" d="M231.7,154.2l-1.6-26.6c3.1-0.2,5.9-0.2,8.5-0.2c8.6,0,17.1,0.6,25.6,1.9l-0.3,26.4l0,0.7L231.7,154.2z"/>
	<path class="st4" d="M238.5,126.7L238.5,126.7c-3.1,0-6.2,0.1-9.2,0.3l1.7,27.9l33.4,2.3l0.1-1.5l0.3-27
		C256.3,127.4,247.5,126.7,238.5,126.7 M238.5,128.1c8.3,0,16.7,0.6,24.9,1.8l-0.3,25.7l0,0.1l-30.8-2.1l-1.5-25.3
		C233.6,128.2,236.2,128.1,238.5,128.1"/>
	<path class="st4" d="M263.5,191.6c-10.7-4.6-20.8-7.4-36.9-7.4c-5.2,0-10.7,0.3-17,0.9l-6.4-20l26.7-7.1l33.9,2.4L263.5,191.6z"/>
	<path class="st4" d="M229.7,157.3L229.7,157.3l-27.4,7.3l6.8,21.2c6.6-0.6,12.4-0.9,17.5-0.9c17.1,0,27.2,3.2,37.6,7.7l0.3-32.9
		L229.7,157.3z M229.8,158.8l33.3,2.3l-0.3,29.5c-10.5-4.4-20.5-7-36.2-7c-5,0-10.4,0.3-16.5,0.8l-6-18.8L229.8,158.8z"/>
	<path class="st4" d="M310.7,177.3v-32.6c6.6,3.4,12.7,7,18,10.9v21.8H310.7z"/>
	<path class="st4" d="M310,143.5L310,143.5V178h19.4v-22.8C323.4,150.8,316.8,146.9,310,143.5 M311.4,145.8
		c6.1,3.2,11.6,6.6,16.6,10.1v20.7h-16.6V145.8z"/>
	<path class="st4" d="M402,199.4c-5.6-7.6-9.6-11.8-13.2-15.5c-1.2-1.2-2.3-2.4-3.4-3.6l20.5-20.2l9.9,10.3l-10.1,29H402z"/>
	<path class="st4" d="M405.9,159.1L405.9,159.1l-21.5,21.2c4.6,5.2,9.4,9.3,17.2,19.9h4.6l10.4-29.9L405.9,159.1z M405.9,161
		l9.1,9.5l-9.8,28.2h-3c-5.5-7.4-9.5-11.6-13.1-15.3c-1-1-2-2.1-2.9-3.1L405.9,161z"/>
	<polygon class="st4" points="410,199.4 420.4,169.3 408.7,157.3 412.2,153.9 438.8,153.9 438.8,199.4 	"/>
	<path class="st4" d="M439.5,153.2L439.5,153.2h-27.6l-4.1,4.1l11.8,12.3L409,200.1h30.5V153.2z M438.1,154.6v44.1h-27.2l9.9-28.7
		l0.3-0.8l-0.6-0.6l-10.9-11.3l2.7-2.7H438.1z"/>
	<path class="st5" d="M97.2,180.9c0,0.1-0.1,0.1-0.1,0.2c-1-0.4-1.8-1.1-2.3-2.1l-0.1-0.2c-0.2-0.1-0.3-0.2-0.5-0.4
		c-0.7-0.3-1.3-0.9-1.7-1.5l-0.2-0.2l0,0c-0.1-0.1-0.3-0.2-0.4-0.3l-0.1,0c-0.4-0.2-0.8-0.4-1.1-0.8c-0.2-0.1-0.3-0.2-0.4-0.3
		c-0.3-0.1-0.5-0.3-0.8-0.4l-0.1,0c-0.3-0.1-0.5-0.3-0.7-0.4c-0.1,0-0.2-0.1-0.2-0.2c-0.3-0.1-0.6-0.3-0.8-0.5
		c-0.3-0.2-0.6-0.4-0.8-0.7c-0.1-0.1-0.1-0.1-0.2-0.2l0,0l0,0l-0.1-0.1c-0.1-0.1-0.2-0.2-0.3-0.3c-0.1-0.1-0.2-0.1-0.2-0.2L86,172
		l0,0c-0.2-0.2-0.4-0.3-0.6-0.5l0,0l0,0l-0.1-0.1l0,0l-0.1,0c-0.4-0.2-0.7-0.4-1-0.7c-0.1-0.1-0.3-0.2-0.4-0.3
		c-0.3-0.2-0.5-0.4-0.7-0.6l-0.1-0.1c-0.2-0.2-0.5-0.4-0.7-0.6l0,0l-0.1-0.1l0,0l0,0l-0.1-0.1l0,0c-0.1-0.1-0.2-0.1-0.3-0.2
		c-0.1,0-0.1-0.1-0.2-0.1c-0.8-0.3-1.6-0.8-2.1-1.5c-0.6-0.2-1.2-0.6-1.6-1.1l-0.1-0.1h0l0,0l0,0c-0.3-0.1-0.6-0.3-0.8-0.5
		c-0.3-0.2-0.6-0.4-0.9-0.7c-0.1-0.1-0.1-0.1-0.2-0.2c-0.4-0.4-0.7-0.8-1-1.3l-0.1-0.1l-0.2-0.2c-0.6-0.2-1.1-0.5-1.6-1
		c-0.8-0.2-1.4-0.6-2-1.1l0,0l-0.1-0.1c-0.1,0-0.3-0.1-0.4-0.1l-0.2-0.1c-0.1,0-0.2-0.1-0.3-0.1l-0.1,0c-0.1,0.1-0.2,0.1-0.3,0.1
		c-0.1,0.1-0.2,0.1-0.3,0.2c-0.1,0-0.1,0.1-0.2,0.1l-0.2,0.1c-0.1,0-0.2,0.1-0.2,0.1l-0.2,0.1l-0.1,0.1c-0.1,0.1-0.1,0.2-0.2,0.4
		c-0.1,0.3-0.2,0.5-0.4,0.7c-0.2,0.5-0.4,0.9-0.7,1.3l-0.1,0.1c-0.1,0.3-0.3,0.5-0.5,0.8c-0.1,0.2-0.2,0.3-0.3,0.4
		c-0.1,0.2-0.2,0.3-0.3,0.5c-0.1,0.2-0.2,0.4-0.4,0.5c-0.1,0.2-0.1,0.4-0.2,0.5l0,0h0c0,0.1-0.1,0.1-0.1,0.2
		c-0.1,0.3-0.2,0.6-0.4,0.9c-0.2,0.5-0.5,1-0.9,1.4l0,0l0,0.1c-0.1,0.2-0.2,0.4-0.3,0.5c0,0.1-0.1,0.2-0.2,0.3
		c-0.3,1.3-1.1,2.4-2.4,3c-0.1,0.5-0.2,0.9-0.4,1.3c-0.2,0.4-0.4,0.8-0.7,1.1l-0.1,0.1c-0.1,0.3-0.2,0.5-0.4,0.7
		c-0.1,0.1-0.1,0.3-0.2,0.4c-0.1,0.3-0.3,0.7-0.5,1l-0.1,0.1l0,0c-0.1,0.2-0.2,0.5-0.4,0.7l0,0c-0.1,0.1-0.1,0.2-0.2,0.3
		c-0.1,0.1-0.1,0.2-0.2,0.3c-0.1,0.2-0.3,0.4-0.4,0.6l-0.1,0.2c-0.1,0.2-0.2,0.3-0.3,0.5l0,0c-0.2,0.3-0.4,0.6-0.6,0.9
		c-0.1,0.1-0.2,0.3-0.3,0.4c-0.1,0.1-0.2,0.3-0.3,0.4c-0.1,0.3-0.2,0.5-0.4,0.7c-0.1,0.3-0.3,0.6-0.5,0.9c-0.1,0.2-0.2,0.4-0.3,0.5
		l0,0.1c0,0.1-0.1,0.1-0.1,0.2l0,0l0,0l0,0c-0.1,0.2-0.2,0.5-0.3,0.7l0,0l0,0l0,0c-0.1,0.3-0.2,0.5-0.3,0.8c0,0.1-0.1,0.2-0.2,0.3
		l-0.1,0.2c-0.1,0.1-0.1,0.2-0.2,0.3l0,0c0,0.1-0.1,0.2-0.1,0.3c-0.1,0.3-0.3,0.5-0.4,0.7l0,0c-0.1,0.1-0.1,0.2-0.2,0.3
		c-0.1,0.3-0.3,0.5-0.4,0.7c0,0.1-0.1,0.2-0.1,0.3c-0.1,0.3-0.3,0.5-0.4,0.7c-0.1,0.2-0.2,0.4-0.3,0.6c-0.1,0.2-0.2,0.4-0.3,0.6
		c-0.1,0.1-0.1,0.3-0.2,0.4l0,0.1l-0.1,0.2c-0.1,0.3-0.2,0.6-0.3,0.8c-0.1,0.3-0.2,0.5-0.3,0.7l-0.1,0.2c-0.1,0.2-0.2,0.5-0.3,0.7
		c-0.1,0.3-0.2,0.5-0.3,0.8c-0.1,0.2-0.1,0.4-0.2,0.6c0,0.1-0.1,0.3-0.1,0.4c-0.1,0.2-0.1,0.4-0.2,0.6l-0.1,0.2
		c-0.1,0.4-0.3,0.8-0.5,1.1c-0.1,0.2-0.1,0.3-0.2,0.4l-0.1,0.2c-0.1,0.4-0.2,0.7-0.3,1l-0.1,0.2c-0.1,0.5-0.3,0.9-0.6,1.3
		c0,0.1-0.1,0.2-0.1,0.3c0,0.1-0.1,0.2-0.1,0.2l0,0c-0.1,0.2-0.1,0.3-0.2,0.4v0.3c0,0.6-0.1,1.2-0.4,1.8c-0.1,0.3-0.2,0.7-0.3,1l0,0
		l-0.1,0.2l0,0l0,0.1c-0.1,0.2-0.1,0.5-0.2,0.7c-0.1,0.4-0.2,0.8-0.4,1.2l0,0l0,0c-0.1,0.5-0.3,0.9-0.5,1.3l0,0.1
		c-0.1,0.2-0.1,0.4-0.2,0.6c-0.1,0.3-0.2,0.6-0.3,0.8c0,0.1-0.1,0.3-0.2,0.4c0,0.1,0,0.2-0.1,0.3c0,0.4-0.1,0.9-0.3,1.3
		c0,0.1-0.1,0.2-0.1,0.3c0,0.1-0.1,0.2-0.1,0.3l0,0c-0.1,0.4-0.2,0.7-0.3,1c-0.1,0.3-0.2,0.6-0.4,0.9c-0.1,0.2-0.2,0.4-0.3,0.5
		c0,0.1-0.1,0.2-0.2,0.3l0,0l-0.1,0.2l0,0l0,0l-0.1,0.2l-0.1,0.2l0,0l-0.1,0.2c0,0.1-0.1,0.2-0.2,0.3l-0.1,0.2l-0.1,0.2
		c-0.1,0.5-0.3,0.9-0.6,1.3l-0.1,0.2c-0.1,0.1-0.1,0.2-0.2,0.2c-0.2,0-0.4-0.1-0.5-0.1c0,0.1,0,0.1,0,0.2l0,0c0,0,0,0,0,0.1h0l0,0
		l0,0c0,0,0,0.1,0,0.2l0,0l0,0l0,0l0,0l0,0c0,0,0,0,0,0.1c0,0,0,0,0,0c0,0,0,0,0,0.1h0c0,0,0,0.1-0.1,0.1v0l0,0l0,0v0.1
		c0,0,0,0,0,0.1h0l0,0l0,0l0,0v0h0l0,0l0,0v0h0c0,0,0,0.1,0,0.1v0v0l0,0l0,0l0,0l0,0l0,0c0,0,0,0,0,0c0,0.1,0,0.2-0.1,0.3
		c0,0,0,0-0.1,0l0,0l0,0c0,0,0,0,0,0.1L77.2,233c0-0.1,12.2-35.9,21.4-51.1L97.2,180.9z"/>
	<path class="st4" d="M72.6,235.6L72.6,235.6l0.2-0.7l-0.1-0.4l-0.2,0.1l0,0c0.1-0.2,0.2-0.4,0.2-0.7l3.9,0.8
		c-3.8,17.3-7.5,35-6.3,53l0.1,1.8l-1-0.6c0-0.5-0.5,0.2-0.5-0.8l0,0l0,0l0,0C67.7,270.3,68.9,252.7,72.6,235.6 M68.5,288.2l-37.1,0
		l0-0.3c-0.4,0-0.8,0.1-1.3,0.1c0,0.1,0,0.1,0,0.2l0,0.1c0,0,0,0,0,0.1l0,0l0,0l0,0c0,0,0.1,0.1,0.1,0.2l0,0l0,0l0,0l0,0l0,0
		c0,0,0,0,0,0.1c0,0,0,0,0,0.1c0,0,0,0,0,0.1l0,0c0,0,0,0.1,0,0.1l0,0l0,0l0,0l0,0c0,0,0,0,0,0.1v0v0l0,0l0,0l0,0l0,0l0,0l0,0l0,0
		c0,0,0,0.1,0,0.1l0,0v0v0l0,0l0,0l0,0l0,0c0,0,0,0,0,0.1c0.1,0.1,0.1,0.2,0,0.3c0,0,0,0-0.1,0l0,0l0,0c0,0,0,0,0,0.1l40.4,0
		c0-0.6-0.1-0.3-0.2-0.3c-0.1,0-1.1-1.2-1.2-1.3L68.5,288.2z"/>
	<path class="st4" d="M120.6,239.9L120.6,239.9l0.2-0.7l-0.1-0.4l-0.2,0.1l0,0c0.1-0.2,0.2-0.4,0.2-0.7l1.6,0.5
		c-3.8,17.3-5.2,35.3-4,53.2l0.1,1.8l-1-0.6c0-0.5-0.5,0.2-0.5-0.8l0,0l0,0l0,0C115.8,274.6,117,257,120.6,239.9 M116.5,292.4
		l-37.1,0l0-0.3c-0.4,0-0.8,0.1-1.3,0.1c0,0.1,0,0.1,0,0.2l0,0.1c0,0,0,0,0,0.1h0l0,0l0,0c0,0,0.1,0.1,0.1,0.2l0,0l0,0l0,0l0,0l0,0
		c0,0,0,0,0,0.1c0,0,0,0,0,0.1c0,0,0,0,0,0.1l0,0c0,0,0,0.1,0,0.1l0,0l0,0l0,0l0,0c0,0,0,0,0,0.1h0v0l0,0l0,0l0,0h0l0,0l0,0l0,0h0
		c0,0,0,0.1,0,0.1l0,0v0l0,0v0l0,0l0,0l0,0c0,0,0,0,0,0.1c0.1,0.1,0.1,0.2,0,0.3c0,0,0,0-0.1,0l0,0l0,0c0,0,0,0,0,0.1l40.4,0
		c0-0.6-0.1-0.3-0.2-0.3c-0.1,0-1.1-1.2-1.2-1.3L116.5,292.4z"/>
	<path class="st5" d="M120.6,239.9L120.6,239.9l0.2-0.7l-0.1-0.4l-0.2,0.1l0,0c0.1-0.2,0.2-0.4,0.2-0.7l1.6,0.5
		c-3.8,17.3-5.2,35.3-4,53.2l0.1,1.8l-1-0.6c0-0.5-0.5,0.2-0.5-0.8l0,0l0,0l0,0C115.8,274.6,117,257,120.6,239.9z M116.5,292.4
		l-37.1,0l0-0.3c-0.4,0-0.8,0.1-1.3,0.1c0,0.1,0,0.1,0,0.2l0,0.1c0,0,0,0,0,0.1h0l0,0l0,0c0,0,0.1,0.1,0.1,0.2l0,0l0,0l0,0l0,0l0,0
		c0,0,0,0,0,0.1c0,0,0,0,0,0.1c0,0,0,0,0,0.1l0,0c0,0,0,0.1,0,0.1l0,0l0,0l0,0l0,0c0,0,0,0,0,0.1h0v0l0,0l0,0l0,0h0l0,0l0,0l0,0h0
		c0,0,0,0.1,0,0.1l0,0v0l0,0v0l0,0l0,0l0,0c0,0,0,0,0,0.1c0.1,0.1,0.1,0.2,0,0.3c0,0,0,0-0.1,0l0,0l0,0c0,0,0,0,0,0.1l40.4,0
		c0-0.6-0.1-0.3-0.2-0.3c-0.1,0-1.1-1.2-1.2-1.3L116.5,292.4z"/>
	<path class="st7" d="M70.1,160.6l0.9,0.7c0.1-0.2,0.2-0.4,0.3-0.6h-0.7l-0.2,0l-0.1-0.1v-0.1h-0.1v-0.1h-0.1v-0.1l-0.1-0.1v-0.1
		l-0.1,0v-0.1h-0.1v-0.1l-0.1,0l-0.1-0.1h-0.1l-0.1-0.1h-0.1v-0.1h-0.1h-0.1l-0.1-0.1v-0.1h-0.1h-0.1v-0.1h-0.1l-0.1-0.1l0,0l0,0
		v0.1l0,0l0,0l0,0l0,0l0,0v0l0,0h0l0,0h0v0h0l0,0l0,0h0h0l0,0l0,0h0l0,0l0,0l0,0l-0.2,0.2v0h0l-0.8,1.1h0l-1.6,2.2
		C54.4,180.8,45.2,199.9,39,220l1.7,0.6c0.2-0.4,0.5-0.9,0.7-1.3l-0.6-0.2C47.4,198.1,57.3,178.5,70.1,160.6"/>
	<path class="st7" d="M40.4,223.4l1.1,0.4c0-0.2,0.1-0.5,0.1-0.7l-0.7,0.2l-0.2,0l-0.1,0l0-0.1l0,0l0-0.1l-0.1,0l0,0l-0.1,0l0-0.1
		l-0.1,0l0-0.1l-0.1,0l0-0.1l-0.1,0l-0.1,0l0,0l-0.1-0.1l-0.1,0l0-0.1l-0.1,0l-0.1,0l-0.1,0l0,0l-0.1,0l-0.1,0l0-0.1l-0.1,0l-0.1,0
		l-0.1,0l0,0l0,0.1l0,0l0,0l0,0l0,0l0,0l0,0l0,0l0,0l0,0l0,0l0,0l0,0l0,0l0,0l0,0l0,0l0,0l0,0l0,0l0,0l0,0l0,0l-0.1,0.2l0,0l0,0
		l-0.4,1.3l0,0l-0.8,2.6c-5.7,20.3-8.3,41.3-7.8,62.3l1.8,0c0.1-0.5,0.2-1,0.3-1.4l-0.6,0C31,266.2,34,244.4,40.4,223.4"/>
	<path class="st7" d="M88.5,227.7l1.1,0.4c0-0.2,0.1-0.5,0.1-0.7l-0.7,0.2l-0.2,0l-0.1,0l0-0.1l-0.1,0l0-0.1l-0.1,0l0,0l-0.1,0
		l0-0.1l-0.1,0l0-0.1l-0.1,0l0-0.1l-0.1,0l-0.1,0l-0.1,0l-0.1-0.1l-0.1,0l0-0.1l0,0l-0.1,0l-0.1,0l0,0l-0.1,0l-0.1,0l0-0.1l0,0
		l-0.1,0l-0.1,0l0,0l0,0.1l0,0l0,0l0,0l0,0l0,0l0,0l0,0l0,0l0,0l0,0l0,0l0,0l0,0l0,0l0,0l0,0l0,0l0,0l0,0l0,0l0,0l0,0l-0.1,0.2l0,0
		l0,0l-0.4,1.3l0,0l-0.8,2.6c-5.7,20.3-8.3,41.3-7.8,62.3l1.8,0c0.1-0.5,0.2-1,0.3-1.4l-0.6,0C79.1,270.5,82.1,248.7,88.5,227.7"/>
	<polygon class="st4" points="96.8,181.9 96.8,181.8 69.8,160.8 69.2,161.5 69.2,161.5 68.8,161.2 68.5,161.2 68.4,161 68.3,161.1 
		68.2,160.9 68.1,161 68.1,160.9 68.1,160.9 68.1,160.9 69.4,159.3 69.7,158.9 98.8,181.6 98.6,181.9 97.8,182.8 97.4,182.6 
		97.2,182.5 97,182.3 97,182 97,182 97,182 97,182 	"/>
	<polygon class="st4" points="72.6,235 72.6,235 40.3,223.7 40,224.6 39.9,224.5 39.5,224.4 39.2,224.4 39.1,224.3 38.9,224.5 
		38.8,224.3 38.7,224.4 38.7,224.4 38.7,224.3 38.7,224.3 39.4,222.4 39.6,222 74.3,234.1 74.3,234.5 73.8,235.6 73.4,235.5 
		73.1,235.5 72.9,235.4 72.8,235.1 72.8,235.1 72.8,235.1 72.8,235.1 	"/>
	<polygon class="st4" points="120.7,239.3 120.7,239.3 88.4,228 88,228.8 88,228.8 87.5,228.7 87.3,228.7 87.1,228.6 87,228.7 
		86.8,228.6 86.8,228.7 86.8,228.6 86.8,228.6 86.8,228.6 87.5,226.7 87.6,226.2 122.4,238.4 122.3,238.8 121.9,239.9 121.5,239.8 
		121.2,239.8 121,239.7 120.9,239.3 120.9,239.3 120.9,239.4 120.9,239.3 	"/>
	<path class="st4" d="M267.1,177.8v-47.6c13.8,2.4,27.3,6.8,40,12.9v34.8H267.1z"/>
	<path class="st4" d="M267.8,131.1L267.8,131.1c13.4,2.4,26.3,6.6,38.6,12.5v33.6h-38.6V131.1z M266.4,129.4v49.2h41.4v-35.9
		C294.8,136.4,280.9,131.9,266.4,129.4"/>
	<path class="st5" d="M200,260.4L200,260.4c-0.1,0-0.1-0.1-0.1-0.2h0l0,0c0,0-0.4-0.4-0.4-0.5c-0.2-0.1-0.1-0.2-0.2-0.3v-0.1
		c-0.1,0-0.2-0.2-0.2-0.3l-0.1,0c0-0.1-0.1,0-0.1-0.1h0c0,0,0-0.1-0.1-0.1c0-0.1,0-0.1-0.1-0.1v-0.1c-0.1,0-0.5-0.5-0.5-0.5
		l-0.1-0.1h0l0-0.1h0v0c0,0-0.1,0-0.1-0.1c0,0-0.2-0.1-0.2-0.1c0-0.1-0.4-0.4-0.4-0.5l-0.1-0.1h-0.1c0,0-0.8-0.6-0.9-0.7
		c0,0,0,0-0.1-0.1c-0.1,0,0,0-0.1,0v0h-0.1v0c-0.1,0,0,0-0.1,0l0-0.1h0l0-0.1H196l0-0.1c-0.2-0.2-0.4-0.4-0.6-0.6
		c-0.3-0.2-0.2-0.2-0.4-0.4c0-0.1-0.1,0-0.1-0.1l0,0c0,0-0.1-0.1-0.1-0.1c0-0.1-0.1-0.1-0.1-0.2h0v0h-0.1v-0.1h0l0,0h0v0l-0.1,0
		c-0.1-0.1-0.2-0.1-0.3-0.2h-0.1v-0.1l-0.1,0v0c-0.1,0-0.1-0.1-0.2-0.1h0l0,0c0,0-0.1-0.1-0.1-0.1h0l0-0.1h0
		c-0.1-0.1-0.3-0.5-0.4-0.5c-0.1,0-0.2-0.1-0.2-0.2c-0.1,0,0,0-0.1-0.1c0,0,0-0.1-0.1-0.1c0-0.1,0,0,0-0.1c-0.1,0-0.1-0.2-0.2-0.3
		v-0.1l-0.1,0c-0.1-0.2-0.2-0.1-0.2-0.4h-0.1v0c0,0-0.1-0.1-0.1-0.1h0v0h0c0-0.1-0.1-0.1-0.1-0.2h0v0h0v0h0v0c0,0-0.1-0.1-0.1-0.2h0
		v0h0c0,0-0.1-0.1-0.1-0.1v0h0c0,0-0.1-0.1-0.1-0.1v-0.1h0l0,0h0v0h0v-0.1h0v-0.1h0l0-0.1h0v-0.1l0,0l0-0.1l-0.2,0v-0.1h0v0l0,0
		c0-0.1,0,0,0-0.1h0v-0.1h0c0-0.1-0.1-0.2-0.2-0.2c0,0,0-0.2-0.1-0.2v-0.1h0v0h0c0-0.1,0,0,0-0.1h0v-0.1h0v-0.1h0c0-0.1,0,0,0-0.1h0
		l-0.1-0.4c-10.8,12.9-15.8,29.4-14,46h14.5c-1.8-12.5,1.4-25.2,9.2-35.3v0L200,260.4C200.1,260.4,200,260.4,200,260.4"/>
	<path class="st5" d="M236.1,227.4l-3.4,0.5c-15.9,1.3-30.3,8.4-41,20.3h0.5l0.1,0.1h0c0,0.1,0,0,0,0.1h0v0.1h0v0.1h0
		c0,0.1,0,0,0,0.1h0v0h0v0.1c0.1,0,0.1,0.1,0.1,0.2c0.1,0,0.2,0.1,0.2,0.2h0v0.1h0c0,0.1,0,0,0,0.1l0,0v0h0v0.1l0.2,0l0,0.1l0,0v0.1
		h0l0,0.1h0v0.1h0v0.1h0v0h0l0,0h0v0.1c0,0,0.1,0.1,0.1,0.1h0v0c0.1,0,0.1,0.1,0.1,0.1h0v0h0c0,0,0.1,0.2,0.1,0.2v0h0v0h0v0h0
		c0,0.1,0.1,0.1,0.1,0.2h0v0h0c0,0,0,0.1,0.1,0.1v0.1h0.1c0,0.1,0,0.1,0.1,0.1c0,0.2,0,0.1,0.1,0.3l0.1,0v0.1
		c0.1,0.1,0.1,0.3,0.2,0.3c0,0.1,0,0,0,0.1c0,0,0.1,0,0.1,0.1c0.1,0.1,0,0.1,0.1,0.1c0,0.1,0.2,0.2,0.2,0.2v0.1
		c0.1,0.1,0.4,0.3,0.4,0.5h0l0,0.1h0c0,0,0.1,0.1,0.1,0.1l0,0.1h0c0.1,0.1,0.1,0.1,0.2,0.1v0l0.1,0v0.1h0.1c0.1,0.1,0.2,0.1,0.3,0.2
		l0.1,0v0h0l0,0h0v0.1h0v0h0c0,0.1,0.1,0.1,0.1,0.2c0.1,0,0.1,0,0.1,0.1l0.1,0c0,0.1,0,0,0,0.1c0.1,0.1,0.1,0.1,0.2,0.2
		c0.1,0.2,0.2,0.2,0.4,0.3c0.1,0.1,0.5,0.4,0.5,0.5h0.1l0,0.1h0l0,0.1c0.1,0,0,0,0.1,0v0h0.1v0c0.1,0,0,0,0.1,0c0,0,0,0.1,0.1,0.1
		c0,0.1,0.1,0.1,0.2,0.2c0.1,0.1,0.6,0.5,0.7,0.5l0.1,0.1c0,0.1,0.4,0.4,0.4,0.5c0,0,0.1,0.1,0.2,0.1c0,0.1,0,0.1,0.1,0.1v0h0l0,0.1
		h0l0.1,0.1c0,0.1,0.4,0.5,0.5,0.5v0c0,0,0.1,0,0.1,0.1c0,0,0.1,0,0.1,0.1h0c0,0.1,0.1,0.1,0.1,0.1l0.1,0c0,0.1,0.1,0.1,0.1,0.2
		l0.1,0.1v0.1c0.2,0.1,0.1,0.2,0.2,0.3c0,0.1,0.4,0.5,0.4,0.5l0,0.1h0l0,0.1c12.7-10.5,20.2-16.7,37.7-15.7l-2.9-13.5L236.1,227.4z"
		/>
	<path class="st4" d="M192.3,248.7L192.3,248.7v-0.1h-0.1v-0.4h-0.1V248l-0.8-0.3c13.5-15.2,25.7-18.1,44.6-21
		c0.1,0.4,0.2,0.7,0.2,1c0.2,2.1-3.8,1-4,1C216.4,230,202.3,237.5,192.3,248.7 M177.2,295.8L177.2,295.8h-1.4
		c-1.8-16.9,3.2-33.7,14.1-46.7v0.7l0.3,0.1v0.1h0.1v0.4h0.5C180.3,263.2,175.3,279.4,177.2,295.8 M199.8,259.8L199.8,259.8
		c-7.7,9.7-11.5,22.3-9.6,36h1.4c-1.9-13,1.9-25.7,9.2-35.2l-0.1,0.2h-0.1v-0.1l-0.5-0.1l-0.1-0.7L199.8,259.8L199.8,259.8
		L199.8,259.8L199.8,259.8C199.8,259.8,199.8,259.8,199.8,259.8 M201.4,257.8c0.4,0,0.3,0.1,0.3,0.1v0l0,0v0h0v0.7l0.6,0.1
		c9.6-11.1,23.2-17.6,37-16.1l-0.4-1.2C229,241.3,217.1,243,201.4,257.8"/>
	<polygon class="st4" points="190.8,294.5 176.5,294.4 176.5,295.8 190.8,295.9 	"/>
	<polygon class="st4" points="201.1,260.4 190,249 189,250.2 200,261.5 	"/>
	<polygon class="st4" points="202.6,258.6 193.2,247.7 191.3,247.7 201.7,259.6 	"/>
	<path class="st4" d="M240.7,336c10.8-0.8,20.9-5.4,28.7-12.7l8.1,12l0,0c-9.8,8.6-22,13.8-35,14.9L240.7,336z"/>
	<path class="st4" d="M277.1,334.8L277.1,334.8l0.4,0.5l0.4,0.7c-9.6,8.4-21.8,13.8-35.2,14.9l-0.2-1.4
		C255.3,348.4,267.4,343.3,277.1,334.8 M240.8,336.7c10.9-0.8,21.1-5.4,29-12.8l-0.8-1.2c-7.5,7.1-17.4,11.8-28.3,12.6v0.4
		L240.8,336.7z"/>
	
		<rect x="272.8" y="321.6" transform="matrix(0.8205 -0.5717 0.5717 0.8205 -139.2552 215.4887)" class="st4" width="1.3" height="15.7"/>
	
		<rect x="241.1" y="335.2" transform="matrix(0.9918 -0.1277 0.1277 0.9918 -41.8162 33.6761)" class="st4" width="1.3" height="15.8"/>
	<path class="st8" d="M161.7,109.6V109h-3.5v2.2h0.7v-1.5h2l-2.5,8.7h0.8L161.7,109.6z M155.8,118.4V109H155l-1.3,1.1v0.9l1.3-1.2
		v8.5H155.8z M152.1,114.4h-2.5v0.7h2.5V114.4z M148.2,115.8c0-1.3-0.1-1.6-0.3-2c-0.1-0.2-0.3-0.3-0.5-0.4c0.2-0.1,0.4-0.3,0.5-0.5
		c0.2-0.3,0.3-0.7,0.3-1.6c0-1.1-0.1-1.6-0.5-1.9c-0.3-0.3-0.7-0.4-1.2-0.4c-0.5,0-0.9,0.2-1.1,0.4c-0.3,0.3-0.5,0.7-0.5,1.3v0.6
		h0.7v-0.7c0-0.7,0.4-1.1,0.9-1.1c0.3,0,0.5,0.1,0.6,0.2c0.2,0.2,0.3,0.6,0.3,1.5c0,0.9-0.1,1.3-0.3,1.5c-0.1,0.2-0.3,0.2-0.6,0.2
		h-0.5v0.6h0.5c0.3,0,0.5,0.1,0.7,0.3c0.2,0.3,0.3,0.5,0.3,1.8c0,1.1-0.1,1.5-0.3,1.8c-0.2,0.2-0.4,0.3-0.6,0.3
		c-0.5,0-0.9-0.4-0.9-1.1v-0.7h-0.7v0.6c0,0.7,0.2,1,0.5,1.3c0.3,0.3,0.7,0.4,1.2,0.4c0.5,0,0.9-0.2,1.2-0.5
		C148.1,117.6,148.2,117.1,148.2,115.8"/>
	<path class="st8" d="M115.1,145.9c0,0.9-0.1,1.3-0.3,1.5c-0.1,0.2-0.4,0.2-0.6,0.2c-0.2,0-0.4-0.1-0.6-0.2
		c-0.2-0.2-0.3-0.6-0.3-1.5c0-0.9,0.1-1.3,0.3-1.5c0.2-0.2,0.4-0.2,0.6-0.2c0.2,0,0.4,0.1,0.6,0.2
		C115,144.6,115.1,144.9,115.1,145.9 M115.2,150.3c0,1.1-0.1,1.5-0.3,1.8c-0.2,0.2-0.4,0.3-0.6,0.3c-0.2,0-0.5-0.1-0.6-0.3
		c-0.2-0.3-0.3-0.7-0.3-1.8c0-1.3,0.1-1.5,0.3-1.8c0.2-0.2,0.4-0.3,0.6-0.3c0.3,0,0.5,0.1,0.6,0.3
		C115.1,148.8,115.2,149.1,115.2,150.3 M115.9,150.4c0-1.3-0.1-1.6-0.3-2c-0.1-0.2-0.3-0.3-0.5-0.5c0.2-0.1,0.4-0.3,0.5-0.5
		c0.2-0.3,0.3-0.7,0.3-1.6c0-1.1-0.1-1.6-0.5-1.9c-0.3-0.3-0.7-0.4-1.1-0.4c-0.5,0-0.9,0.2-1.1,0.4c-0.4,0.4-0.5,0.8-0.5,1.9
		c0,0.9,0.1,1.3,0.3,1.6c0.1,0.2,0.3,0.4,0.5,0.5c-0.2,0.1-0.4,0.3-0.5,0.5c-0.3,0.4-0.3,0.7-0.3,2c0,1.3,0.1,1.8,0.5,2.2
		c0.3,0.3,0.7,0.5,1.2,0.5c0.5,0,0.9-0.2,1.2-0.5C115.8,152.1,115.9,151.6,115.9,150.4 M110,152.9v-9.4h-0.7l-1.3,1.1v0.9l1.3-1.2
		v8.5H110z M106.4,148.9h-2.5v0.7h2.5V148.9z M102.4,150.4c0-1.3-0.1-1.6-0.3-2c-0.1-0.2-0.3-0.3-0.5-0.4c0.2-0.1,0.4-0.3,0.5-0.5
		c0.2-0.3,0.3-0.7,0.3-1.6c0-1.1-0.1-1.6-0.5-1.9c-0.3-0.3-0.7-0.4-1.2-0.4c-0.5,0-0.9,0.2-1.1,0.4c-0.3,0.3-0.5,0.7-0.5,1.3v0.6
		h0.7v-0.7c0-0.7,0.4-1.1,0.9-1.1c0.3,0,0.5,0.1,0.6,0.2c0.2,0.2,0.3,0.6,0.3,1.5c0,0.9-0.1,1.3-0.3,1.5c-0.1,0.2-0.3,0.2-0.6,0.2
		h-0.5v0.6h0.5c0.3,0,0.5,0.1,0.7,0.3c0.2,0.3,0.3,0.5,0.3,1.8c0,1.1-0.1,1.5-0.3,1.8c-0.2,0.2-0.4,0.3-0.6,0.3
		c-0.5,0-0.9-0.4-0.9-1.1v-0.7H99v0.6c0,0.7,0.2,1,0.5,1.3c0.3,0.3,0.7,0.4,1.2,0.4c0.5,0,0.9-0.2,1.2-0.5
		C102.3,152.1,102.4,151.7,102.4,150.4"/>
	<path class="st8" d="M77,204.1c0,0.7-0.4,1.1-0.9,1.1c-0.5,0-0.9-0.4-0.9-1.1V198c0-0.7,0.4-1.1,0.9-1.1c0.5,0,0.9,0.4,0.9,1.1
		V204.1z M77.7,204v-6c0-0.6-0.2-1-0.5-1.3c-0.3-0.3-0.7-0.5-1.2-0.5c-0.5,0-0.9,0.2-1.2,0.5c-0.3,0.3-0.5,0.7-0.5,1.3v6
		c0,0.6,0.2,1,0.5,1.3c0.3,0.3,0.7,0.5,1.2,0.5c0.5,0,0.9-0.2,1.2-0.5C77.6,205.1,77.7,204.7,77.7,204 M73,205.7v-0.7h-2.6l2.1-4.9
		c0.3-0.6,0.5-1.5,0.5-2.2c0-0.6-0.2-1.1-0.5-1.3c-0.3-0.3-0.7-0.4-1.2-0.4c-0.5,0-0.9,0.2-1.2,0.5c-0.3,0.3-0.5,0.7-0.5,1.3v0.7
		h0.7V198c0-0.7,0.4-1.1,0.9-1.1c0.5,0,0.9,0.4,0.9,1.1c0,0.8-0.2,1.5-0.4,2l-2.2,5.1v0.6H73z M68.2,201.7h-2.5v0.7h2.5V201.7z
		 M64.3,203.1c0-1.3-0.1-1.6-0.3-2c-0.1-0.2-0.3-0.3-0.5-0.4c0.2-0.1,0.4-0.3,0.5-0.5c0.2-0.3,0.3-0.7,0.3-1.6
		c0-1.1-0.1-1.6-0.5-1.9c-0.3-0.3-0.7-0.4-1.2-0.4c-0.5,0-0.9,0.2-1.1,0.4c-0.3,0.3-0.5,0.7-0.5,1.3v0.6h0.7V198
		c0-0.7,0.4-1.1,0.9-1.1c0.3,0,0.5,0.1,0.6,0.2c0.2,0.2,0.3,0.6,0.3,1.5c0,0.9-0.1,1.3-0.3,1.5c-0.1,0.2-0.3,0.2-0.6,0.2H62v0.6h0.5
		c0.3,0,0.5,0.1,0.7,0.3c0.3,0.3,0.3,0.5,0.3,1.8c0,1.1-0.1,1.5-0.3,1.8c-0.2,0.2-0.4,0.3-0.6,0.3c-0.5,0-0.9-0.4-0.9-1.1v-0.7h-0.7
		v0.6c0,0.7,0.2,1,0.5,1.3c0.3,0.3,0.7,0.4,1.2,0.4c0.5,0,0.9-0.2,1.2-0.5C64.2,204.9,64.3,204.4,64.3,203.1"/>
	<path class="st8" d="M62.2,263.9c0,1.2-0.3,1.9-1.2,1.9h-1.1V262H61C61.9,262,62.2,262.7,62.2,263.9 M63,263.9c0-2-0.7-2.6-2-2.6
		h-1.1v-3.4h2.8v-0.7h-3.5v9.4H61C62.1,266.5,63,266.1,63,263.9 M56.3,266.5v-9.4h-0.7l-1.3,1.1v0.9l1.3-1.2v8.5H56.3z M52.7,266.5
		v-0.7h-2.6l2.1-4.9c0.3-0.6,0.5-1.5,0.5-2.2c0-0.6-0.2-1.1-0.5-1.3c-0.3-0.3-0.7-0.4-1.2-0.4c-0.5,0-0.9,0.2-1.2,0.5
		c-0.3,0.3-0.5,0.7-0.5,1.3v0.7h0.7v-0.7c0-0.7,0.4-1.1,0.9-1.1c0.5,0,0.9,0.4,0.9,1.1c0,0.8-0.2,1.5-0.4,2l-2.2,5.1v0.6H52.7z
		 M47.9,262.5h-2.5v0.7h2.5V262.5z M44,263.9c0-1.3-0.1-1.6-0.3-2c-0.1-0.2-0.3-0.3-0.5-0.4c0.2-0.1,0.4-0.3,0.5-0.5
		c0.2-0.3,0.3-0.7,0.3-1.6c0-1.1-0.1-1.6-0.5-1.9c-0.3-0.3-0.7-0.4-1.2-0.4c-0.5,0-0.9,0.2-1.1,0.4c-0.3,0.3-0.5,0.7-0.5,1.3v0.6
		h0.7v-0.7c0-0.7,0.4-1.1,0.9-1.1c0.3,0,0.5,0.1,0.6,0.2c0.2,0.2,0.3,0.6,0.3,1.5c0,0.9-0.1,1.3-0.3,1.5c-0.1,0.2-0.3,0.2-0.6,0.2
		h-0.5v0.6h0.5c0.3,0,0.5,0.1,0.7,0.3c0.2,0.3,0.3,0.5,0.3,1.8c0,1.1-0.1,1.5-0.3,1.8c-0.2,0.2-0.4,0.3-0.6,0.3
		c-0.5,0-0.9-0.4-0.9-1.1v-0.7h-0.7v0.6c0,0.7,0.2,1,0.5,1.3c0.3,0.3,0.7,0.4,1.2,0.4c0.5,0,0.9-0.2,1.2-0.5
		C43.9,265.7,44,265.2,44,263.9"/>
	<path class="st8" d="M110.4,267.5h-1.9l0.9-4.7L110.4,267.5z M111.9,270.8l-2.1-9.4h-0.7l-2.1,9.4h0.8l0.5-2.6h2.2l0.5,2.6H111.9z
		 M105.2,270.8v-9.4h-0.7l-1.3,1.1v0.9l1.3-1.2v8.5H105.2z M101.6,270.8v-0.7H99l2.1-4.9c0.3-0.6,0.5-1.5,0.5-2.2
		c0-0.6-0.2-1.1-0.5-1.3c-0.3-0.3-0.7-0.4-1.2-0.4c-0.5,0-0.9,0.2-1.2,0.5c-0.3,0.3-0.5,0.7-0.5,1.3v0.7H99v-0.7
		c0-0.7,0.4-1.1,0.9-1.1c0.5,0,0.9,0.4,0.9,1.1c0,0.8-0.2,1.5-0.4,2l-2.2,5.1v0.6H101.6z M96.8,266.8h-2.5v0.7h2.5V266.8z
		 M92.9,268.2c0-1.3-0.1-1.6-0.3-2c-0.1-0.2-0.3-0.3-0.5-0.4c0.2-0.1,0.4-0.3,0.5-0.5c0.2-0.3,0.3-0.7,0.3-1.6
		c0-1.1-0.1-1.6-0.5-1.9c-0.3-0.3-0.7-0.4-1.2-0.4c-0.5,0-0.9,0.2-1.1,0.4c-0.3,0.3-0.5,0.7-0.5,1.3v0.6h0.7v-0.7
		c0-0.7,0.4-1.1,0.9-1.1c0.3,0,0.5,0.1,0.6,0.3c0.2,0.2,0.3,0.6,0.3,1.5c0,0.9-0.1,1.3-0.3,1.5c-0.1,0.2-0.3,0.2-0.6,0.2h-0.5v0.6
		h0.5c0.3,0,0.5,0.1,0.7,0.3c0.2,0.3,0.3,0.5,0.3,1.8c0,1.1-0.1,1.5-0.3,1.8c-0.2,0.2-0.4,0.3-0.6,0.3c-0.5,0-0.9-0.4-0.9-1.1v-0.7
		h-0.7v0.6c0,0.7,0.2,1,0.5,1.3c0.3,0.3,0.7,0.4,1.2,0.4c0.5,0,0.9-0.2,1.2-0.5C92.8,270,92.9,269.5,92.9,268.2"/>
	<path class="st8" d="M144.9,177.5c0,1.1-0.1,1.6-0.3,1.9c-0.2,0.2-0.4,0.3-0.7,0.3c-0.3,0-0.5-0.1-0.7-0.3
		c-0.3-0.3-0.3-0.8-0.3-1.9c0-1.1,0.1-1.7,0.3-1.9c0.2-0.2,0.4-0.3,0.7-0.3c0.3,0,0.5,0.1,0.7,0.3
		C144.8,175.8,144.9,176.4,144.9,177.5 M145.6,177.5c0-1.4-0.1-1.9-0.5-2.4c-0.3-0.3-0.7-0.5-1.2-0.5s-1,0.2-1.2,0.5
		c-0.4,0.4-0.5,0.9-0.5,2.4c0,1.6,0.1,2,0.5,2.4c0.3,0.3,0.6,0.5,1.1,0.5c0.3,0,0.6-0.1,0.8-0.3l-1.5,4h0.7l1.5-4.1
		C145.5,179.3,145.6,178.5,145.6,177.5 M139.7,184.1v-9.4H139l-1.3,1.1v0.9l1.3-1.2v8.5H139.7z M136.1,180.1h-2.5v0.7h2.5V180.1z
		 M132.1,181.5c0-1.3-0.1-1.6-0.3-2c-0.1-0.2-0.3-0.3-0.5-0.4c0.2-0.1,0.4-0.3,0.5-0.5c0.2-0.3,0.3-0.7,0.3-1.6
		c0-1.1-0.1-1.6-0.5-1.9c-0.3-0.3-0.7-0.4-1.2-0.4c-0.5,0-0.9,0.2-1.1,0.4c-0.3,0.3-0.5,0.7-0.5,1.3v0.6h0.7v-0.7
		c0-0.7,0.4-1.1,0.9-1.1c0.3,0,0.5,0.1,0.6,0.3c0.2,0.2,0.3,0.6,0.3,1.5c0,0.9-0.1,1.3-0.3,1.5c-0.1,0.2-0.3,0.2-0.6,0.2h-0.5v0.6
		h0.5c0.3,0,0.5,0.1,0.7,0.3c0.2,0.3,0.3,0.5,0.3,1.8c0,1.1-0.1,1.5-0.3,1.8c-0.2,0.2-0.4,0.3-0.6,0.3c-0.5,0-0.9-0.4-0.9-1.1v-0.7
		h-0.7v0.6c0,0.7,0.2,1,0.5,1.3c0.3,0.3,0.7,0.4,1.2,0.4c0.5,0,0.9-0.2,1.2-0.5C132,183.3,132.1,182.8,132.1,181.5"/>
	<path class="st8" d="M194,168.8v-9.4h-0.7l-1.3,1.1v0.9l1.3-1.2v8.5H194z M189.6,167.2c0,0.7-0.4,1.1-0.9,1.1
		c-0.5,0-0.9-0.4-0.9-1.1v-6.1c0-0.7,0.4-1.1,0.9-1.1c0.5,0,0.9,0.4,0.9,1.1V167.2z M190.4,167.2v-6c0-0.6-0.2-1-0.5-1.3
		c-0.3-0.3-0.7-0.5-1.2-0.5c-0.5,0-0.9,0.2-1.2,0.5c-0.3,0.3-0.5,0.7-0.5,1.3v6c0,0.6,0.2,1,0.5,1.3c0.3,0.3,0.7,0.5,1.2,0.5
		c0.5,0,0.9-0.2,1.2-0.5C190.2,168.2,190.4,167.8,190.4,167.2 M185.6,164.8h-2.5v0.7h2.5V164.8z M181.7,166.3c0-1.3-0.1-1.6-0.3-2
		c-0.1-0.2-0.3-0.3-0.5-0.4c0.2-0.1,0.4-0.3,0.5-0.5c0.2-0.3,0.3-0.7,0.3-1.6c0-1.1-0.1-1.6-0.5-1.9c-0.3-0.3-0.7-0.4-1.2-0.4
		c-0.5,0-0.9,0.2-1.1,0.4c-0.3,0.3-0.5,0.7-0.5,1.3v0.6h0.7v-0.7c0-0.7,0.4-1.1,0.9-1.1c0.3,0,0.5,0.1,0.6,0.2
		c0.2,0.2,0.3,0.6,0.3,1.5c0,0.9-0.1,1.3-0.3,1.5c-0.1,0.2-0.3,0.2-0.6,0.2h-0.5v0.6h0.5c0.3,0,0.5,0.1,0.7,0.3
		c0.2,0.3,0.3,0.5,0.3,1.8c0,1.1-0.1,1.5-0.3,1.8c-0.2,0.2-0.4,0.3-0.6,0.3c-0.5,0-0.9-0.4-0.9-1.1v-0.7h-0.7v0.6
		c0,0.7,0.2,1,0.5,1.3c0.3,0.3,0.7,0.4,1.2,0.4c0.5,0,0.9-0.2,1.2-0.5C181.6,168,181.7,167.6,181.7,166.3"/>
	<path class="st8" d="M246.6,173.8h-1.9l0.9-4.7L246.6,173.8z M248.1,177.1l-2.1-9.4h-0.7l-2.1,9.4h0.8l0.5-2.6h2.2l0.5,2.6H248.1z
		 M242.5,177.1v-0.7h-2.6l2.1-4.9c0.3-0.6,0.5-1.5,0.5-2.2c0-0.6-0.2-1.1-0.5-1.3c-0.3-0.3-0.7-0.4-1.2-0.4s-0.9,0.2-1.2,0.5
		c-0.3,0.3-0.5,0.7-0.5,1.3v0.7h0.7v-0.7c0-0.7,0.4-1.1,0.9-1.1c0.5,0,0.9,0.4,0.9,1.1c0,0.8-0.2,1.5-0.4,2l-2.2,5.1v0.6H242.5z
		 M237,175.4c0,0.7-0.4,1.1-0.9,1.1c-0.5,0-0.9-0.4-0.9-1.1v-6.1c0-0.7,0.4-1.1,0.9-1.1c0.5,0,0.9,0.4,0.9,1.1V175.4z M237.7,175.4
		v-6c0-0.6-0.2-1-0.5-1.3c-0.3-0.3-0.7-0.5-1.2-0.5c-0.5,0-0.9,0.2-1.2,0.5c-0.3,0.3-0.5,0.7-0.5,1.3v6c0,0.6,0.2,1,0.5,1.3
		c0.3,0.3,0.7,0.5,1.2,0.5c0.5,0,0.9-0.2,1.2-0.5C237.5,176.4,237.7,176,237.7,175.4 M233,173.1h-2.5v0.7h2.5V173.1z M229,174.5
		c0-1.3-0.1-1.6-0.3-2c-0.1-0.2-0.3-0.3-0.5-0.4c0.2-0.1,0.4-0.3,0.5-0.5c0.2-0.3,0.3-0.7,0.3-1.6c0-1.1-0.1-1.6-0.5-1.9
		c-0.3-0.3-0.7-0.4-1.2-0.4c-0.5,0-0.9,0.2-1.1,0.4c-0.3,0.3-0.5,0.7-0.5,1.3v0.6h0.7v-0.7c0-0.7,0.4-1.1,0.9-1.1
		c0.3,0,0.5,0.1,0.6,0.2c0.2,0.2,0.3,0.6,0.3,1.5c0,0.9-0.1,1.3-0.3,1.5c-0.1,0.2-0.3,0.2-0.6,0.2h-0.5v0.6h0.5
		c0.3,0,0.5,0.1,0.7,0.3c0.3,0.3,0.3,0.5,0.3,1.8c0,1.1-0.1,1.5-0.3,1.8c-0.2,0.2-0.4,0.3-0.6,0.3c-0.5,0-0.9-0.4-0.9-1.1v-0.7h-0.7
		v0.6c0,0.7,0.2,1,0.5,1.3c0.3,0.3,0.7,0.4,1.2,0.4c0.5,0,0.9-0.2,1.2-0.5C228.9,176.3,229,175.8,229,174.5"/>
	<path class="st8" d="M258.8,144c0,1.2-0.3,1.9-1.2,1.9h-1.1v-3.8h1.1C258.5,142.1,258.8,142.8,258.8,144 M259.5,144
		c0-2-0.7-2.6-2-2.6h-1.1V138h2.8v-0.7h-3.5v9.4h1.9C258.6,146.6,259.5,146.2,259.5,144 M254.1,146.6V146h-2.6l2.1-4.9
		c0.3-0.6,0.5-1.5,0.5-2.2c0-0.6-0.2-1.1-0.5-1.3c-0.3-0.3-0.7-0.4-1.2-0.4c-0.5,0-0.9,0.2-1.2,0.5c-0.3,0.3-0.5,0.7-0.5,1.3v0.7
		h0.7v-0.7c0-0.7,0.4-1.1,0.9-1.1c0.5,0,0.9,0.4,0.9,1.1c0,0.8-0.2,1.5-0.4,2l-2.2,5.1v0.6H254.1z M248.5,145c0,0.7-0.4,1.1-0.9,1.1
		c-0.5,0-0.9-0.4-0.9-1.1v-6.1c0-0.7,0.4-1.1,0.9-1.1c0.5,0,0.9,0.4,0.9,1.1V145z M249.3,145v-6c0-0.6-0.2-1-0.5-1.3
		c-0.3-0.3-0.7-0.5-1.2-0.5c-0.5,0-0.9,0.2-1.2,0.5c-0.3,0.3-0.5,0.7-0.5,1.3v6c0,0.6,0.2,1,0.5,1.3c0.3,0.3,0.7,0.5,1.2,0.5
		c0.5,0,0.9-0.2,1.2-0.5C249.1,146,249.3,145.6,249.3,145 M244.5,142.6H242v0.7h2.5V142.6z M240.6,144.1c0-1.3-0.1-1.6-0.3-2
		c-0.1-0.2-0.3-0.3-0.5-0.4c0.2-0.1,0.4-0.3,0.5-0.5c0.2-0.3,0.3-0.7,0.3-1.6c0-1.1-0.1-1.6-0.5-1.9c-0.3-0.3-0.7-0.4-1.2-0.4
		c-0.5,0-0.9,0.2-1.1,0.4c-0.3,0.3-0.5,0.7-0.5,1.3v0.6h0.7v-0.7c0-0.7,0.4-1.1,0.9-1.1c0.3,0,0.5,0.1,0.6,0.2
		c0.2,0.2,0.3,0.6,0.3,1.5c0,0.9-0.1,1.3-0.3,1.5c-0.1,0.2-0.3,0.2-0.6,0.2h-0.5v0.6h0.5c0.3,0,0.5,0.1,0.7,0.3
		c0.2,0.3,0.3,0.5,0.3,1.8c0,1.1-0.1,1.5-0.3,1.8c-0.2,0.2-0.4,0.3-0.6,0.3c-0.5,0-0.9-0.4-0.9-1.1v-0.7h-0.7v0.6
		c0,0.7,0.2,1,0.5,1.3c0.3,0.3,0.7,0.4,1.2,0.4c0.5,0,0.9-0.2,1.2-0.5C240.5,145.8,240.6,145.4,240.6,144.1"/>
	<path class="st8" d="M298.2,159.4h-1.9l0.9-4.7L298.2,159.4z M299.6,162.7l-2.1-9.4h-0.7l-2.1,9.4h0.8l0.5-2.6h2.2l0.5,2.6H299.6z
		 M294,160.1c0-1.3-0.1-1.6-0.3-2c-0.1-0.2-0.3-0.3-0.5-0.4c0.2-0.1,0.4-0.3,0.5-0.5c0.2-0.3,0.3-0.7,0.3-1.6c0-1.1-0.1-1.6-0.5-1.9
		c-0.3-0.3-0.7-0.4-1.2-0.4c-0.5,0-0.9,0.2-1.1,0.4c-0.3,0.3-0.5,0.7-0.5,1.3v0.6h0.7V155c0-0.7,0.4-1.1,0.9-1.1
		c0.3,0,0.5,0.1,0.6,0.2c0.2,0.2,0.3,0.6,0.3,1.5c0,0.9-0.1,1.3-0.3,1.5c-0.1,0.2-0.3,0.2-0.6,0.2h-0.5v0.6h0.5
		c0.3,0,0.5,0.1,0.7,0.3c0.3,0.3,0.3,0.5,0.3,1.8c0,1.1-0.1,1.5-0.3,1.8c-0.2,0.2-0.4,0.3-0.6,0.3c-0.5,0-0.9-0.4-0.9-1.1v-0.7h-0.7
		v0.6c0,0.7,0.2,1,0.5,1.3c0.3,0.3,0.7,0.4,1.2,0.4c0.5,0,0.9-0.2,1.2-0.5C293.9,161.9,294,161.4,294,160.1 M288.5,161.1
		c0,0.7-0.4,1.1-0.9,1.1c-0.5,0-0.9-0.4-0.9-1.1V155c0-0.7,0.4-1.1,0.9-1.1c0.5,0,0.9,0.4,0.9,1.1V161.1z M289.3,161v-6
		c0-0.6-0.2-1-0.5-1.3c-0.3-0.3-0.7-0.5-1.2-0.5s-0.9,0.2-1.2,0.5c-0.3,0.3-0.5,0.7-0.5,1.3v6c0,0.6,0.2,1,0.5,1.3
		c0.3,0.3,0.7,0.5,1.2,0.5s0.9-0.2,1.2-0.5C289.1,162.1,289.3,161.7,289.3,161 M284.5,158.7H282v0.7h2.5V158.7z M280.6,160.1
		c0-1.3-0.1-1.6-0.3-2c-0.1-0.2-0.3-0.3-0.5-0.4c0.2-0.1,0.4-0.3,0.5-0.5c0.2-0.3,0.3-0.7,0.3-1.6c0-1.1-0.1-1.6-0.5-1.9
		c-0.3-0.3-0.7-0.4-1.2-0.4c-0.5,0-0.9,0.2-1.1,0.4c-0.3,0.3-0.5,0.7-0.5,1.3v0.6h0.7V155c0-0.7,0.4-1.1,0.9-1.1
		c0.3,0,0.5,0.1,0.6,0.2c0.2,0.2,0.3,0.6,0.3,1.5c0,0.9-0.1,1.3-0.3,1.5c-0.1,0.2-0.3,0.2-0.6,0.2h-0.5v0.6h0.5
		c0.3,0,0.5,0.1,0.7,0.3c0.2,0.3,0.3,0.5,0.3,1.8c0,1.1-0.1,1.5-0.3,1.8c-0.2,0.2-0.4,0.3-0.6,0.3c-0.5,0-0.9-0.4-0.9-1.1v-0.7h-0.7
		v0.6c0,0.7,0.2,1,0.5,1.3c0.3,0.3,0.7,0.4,1.2,0.4c0.5,0,0.9-0.2,1.2-0.5C280.5,161.9,280.6,161.4,280.6,160.1"/>
	<path class="st8" d="M309.1,201c0,1.2-0.3,1.9-1.2,1.9h-1.1v-3.8h1.1C308.8,199.1,309.1,199.8,309.1,201 M309.8,201
		c0-2-0.7-2.6-2-2.6h-1.1v-3.4h2.8v-0.7h-3.5v9.4h1.9C308.9,203.6,309.8,203.2,309.8,201 M304.3,199.6h-2.5v0.7h2.5V199.6z
		 M300.3,201c0-1.3-0.1-1.6-0.3-2c-0.1-0.2-0.3-0.3-0.5-0.4c0.2-0.1,0.4-0.3,0.5-0.5c0.2-0.3,0.3-0.7,0.3-1.6c0-1.1-0.1-1.6-0.5-1.9
		c-0.3-0.3-0.7-0.4-1.2-0.4c-0.5,0-0.9,0.2-1.1,0.4c-0.3,0.3-0.5,0.7-0.5,1.3v0.6h0.7v-0.7c0-0.7,0.4-1.1,0.9-1.1
		c0.3,0,0.5,0.1,0.6,0.2c0.2,0.2,0.3,0.6,0.3,1.5c0,0.9-0.1,1.3-0.3,1.5c-0.1,0.2-0.3,0.2-0.6,0.2h-0.5v0.6h0.5
		c0.3,0,0.5,0.1,0.7,0.3c0.2,0.3,0.3,0.5,0.3,1.8c0,1.1-0.1,1.5-0.3,1.8c-0.2,0.2-0.4,0.3-0.6,0.3c-0.5,0-0.9-0.4-0.9-1.1v-0.7H297
		v0.6c0,0.7,0.2,1,0.5,1.3c0.3,0.3,0.7,0.4,1.2,0.4c0.5,0,0.9-0.2,1.2-0.5C300.2,202.8,300.3,202.3,300.3,201"/>
	<path class="st8" d="M368.7,221.8c0,1.2-0.3,1.9-1.2,1.9h-1.1v-3.8h1.1C368.5,219.9,368.7,220.6,368.7,221.8 M369.5,221.9
		c0-2-0.7-2.6-2-2.6h-1.1v-3.4h2.8v-0.7h-3.5v9.4h1.9C368.6,224.5,369.5,224.1,369.5,221.9 M364,224.5v-0.7h-2.6l2.1-4.9
		c0.3-0.6,0.5-1.5,0.5-2.2c0-0.6-0.2-1.1-0.5-1.3c-0.3-0.3-0.7-0.4-1.2-0.4c-0.5,0-0.9,0.2-1.2,0.5c-0.3,0.3-0.5,0.7-0.5,1.3v0.7
		h0.7v-0.7c0-0.7,0.4-1.1,0.9-1.1c0.5,0,0.9,0.4,0.9,1.1c0,0.8-0.2,1.5-0.4,2l-2.2,5.1v0.6H364z M358.1,224.5v-9.4h-0.7l-1.3,1.1
		v0.9l1.3-1.2v8.5H358.1z M354.5,220.5H352v0.7h2.5V220.5z M350.5,221.9c0-1.3-0.1-1.6-0.3-2c-0.1-0.2-0.3-0.3-0.5-0.4
		c0.2-0.1,0.4-0.3,0.5-0.5c0.2-0.3,0.3-0.7,0.3-1.6c0-1.1-0.1-1.6-0.5-1.9c-0.3-0.3-0.7-0.4-1.2-0.4c-0.5,0-0.9,0.2-1.1,0.4
		c-0.3,0.3-0.5,0.7-0.5,1.3v0.6h0.7v-0.7c0-0.7,0.4-1.1,0.9-1.1c0.3,0,0.5,0.1,0.6,0.2c0.2,0.2,0.3,0.6,0.3,1.5
		c0,0.9-0.1,1.3-0.3,1.5c-0.1,0.2-0.3,0.2-0.6,0.2h-0.5v0.6h0.5c0.3,0,0.5,0.1,0.7,0.3c0.3,0.3,0.3,0.5,0.3,1.8
		c0,1.1-0.1,1.5-0.3,1.8c-0.2,0.2-0.4,0.3-0.6,0.3c-0.5,0-0.9-0.4-0.9-1.1v-0.7h-0.7v0.6c0,0.7,0.2,1,0.5,1.3
		c0.3,0.3,0.7,0.4,1.2,0.4s0.9-0.2,1.2-0.5C350.4,223.7,350.5,223.2,350.5,221.9"/>
	<path d="M349.8,256.6v-0.7h-0.7v-2.6h-0.7v2.6h-1.7l2.4-7.1h-0.7l-2.4,7.1v0.7h2.5v1.6h0.7v-1.6H349.8z M344,256.5
		c0,0.7-0.4,1.1-0.9,1.1c-0.5,0-0.9-0.4-0.9-1.1v-6.1c0-0.7,0.4-1.1,0.9-1.1c0.5,0,0.9,0.4,0.9,1.1V256.5z M344.8,256.5v-6
		c0-0.6-0.2-1-0.5-1.3c-0.3-0.3-0.7-0.5-1.2-0.5c-0.5,0-0.9,0.2-1.2,0.5c-0.3,0.3-0.5,0.7-0.5,1.3v6c0,0.6,0.2,1,0.5,1.3
		c0.3,0.3,0.7,0.5,1.2,0.5c0.5,0,0.9-0.2,1.2-0.5C344.6,257.5,344.8,257.2,344.8,256.5 M340,254.2h-2.5v0.7h2.5V254.2z M336,255.6
		c0-1.3-0.1-1.6-0.3-2c-0.1-0.2-0.3-0.3-0.5-0.4c0.2-0.1,0.4-0.3,0.5-0.5c0.2-0.3,0.3-0.7,0.3-1.6c0-1.1-0.1-1.6-0.5-1.9
		c-0.3-0.3-0.7-0.4-1.2-0.4c-0.5,0-0.9,0.2-1.1,0.4c-0.3,0.3-0.5,0.7-0.5,1.3v0.6h0.7v-0.7c0-0.7,0.4-1.1,0.9-1.1
		c0.3,0,0.5,0.1,0.6,0.2c0.2,0.2,0.3,0.6,0.3,1.5c0,0.9-0.1,1.3-0.3,1.5c-0.1,0.2-0.3,0.2-0.6,0.2h-0.5v0.6h0.5
		c0.3,0,0.5,0.1,0.7,0.3c0.3,0.3,0.3,0.5,0.3,1.8c0,1.1-0.1,1.5-0.3,1.8c-0.2,0.2-0.4,0.3-0.6,0.3c-0.5,0-0.9-0.4-0.9-1.1v-0.7h-0.7
		v0.6c0,0.7,0.2,1,0.5,1.3c0.3,0.3,0.7,0.4,1.2,0.4c0.5,0,0.9-0.2,1.2-0.5C335.9,257.4,336,256.9,336,255.6"/>
	<path class="st8" d="M423.9,257.3c0,1.1-0.1,1.7-0.3,1.9c-0.2,0.2-0.4,0.3-0.7,0.3c-0.2,0-0.5-0.1-0.7-0.3
		c-0.2-0.3-0.3-0.8-0.3-1.9c0-1.1,0.1-1.6,0.3-1.9c0.2-0.2,0.4-0.3,0.7-0.3c0.3,0,0.5,0.1,0.7,0.3
		C423.9,255.6,423.9,256.1,423.9,257.3 M424.6,257.3c0-1.6-0.1-2-0.5-2.4c-0.3-0.3-0.6-0.5-1.1-0.5c-0.3,0-0.6,0.1-0.8,0.3l1.5-4
		h-0.7l-1.5,4.1c-0.3,0.7-0.4,1.5-0.4,2.5c0,1.4,0.1,1.9,0.5,2.4c0.3,0.3,0.7,0.5,1.2,0.5c0.5,0,1-0.2,1.2-0.5
		C424.6,259.1,424.6,258.7,424.6,257.3 M419.1,258.4c0,0.7-0.4,1.1-0.9,1.1c-0.5,0-0.9-0.4-0.9-1.1v-6.1c0-0.7,0.4-1.1,0.9-1.1
		c0.5,0,0.9,0.4,0.9,1.1V258.4z M419.9,258.3v-6c0-0.6-0.2-1-0.5-1.3c-0.3-0.3-0.7-0.5-1.2-0.5c-0.5,0-0.9,0.2-1.2,0.5
		c-0.3,0.3-0.5,0.7-0.5,1.3v6c0,0.6,0.2,1,0.5,1.3c0.3,0.3,0.7,0.5,1.2,0.5c0.5,0,0.9-0.2,1.2-0.5
		C419.7,259.4,419.9,259,419.9,258.3 M415.1,256h-2.5v0.7h2.5V256z M411.2,257.4c0-1.3-0.1-1.6-0.3-2c-0.1-0.2-0.3-0.3-0.5-0.4
		c0.2-0.1,0.4-0.3,0.5-0.5c0.2-0.3,0.3-0.7,0.3-1.6c0-1.1-0.1-1.6-0.5-1.9c-0.3-0.3-0.7-0.4-1.2-0.4c-0.5,0-0.9,0.2-1.1,0.4
		c-0.3,0.3-0.5,0.7-0.5,1.3v0.6h0.7v-0.7c0-0.7,0.4-1.1,0.9-1.1c0.3,0,0.5,0.1,0.6,0.3c0.2,0.2,0.3,0.6,0.3,1.5
		c0,0.9-0.1,1.3-0.3,1.5c-0.1,0.2-0.3,0.2-0.6,0.2h-0.5v0.6h0.5c0.3,0,0.5,0.1,0.7,0.3c0.2,0.3,0.3,0.5,0.3,1.8
		c0,1.1-0.1,1.5-0.3,1.8c-0.2,0.2-0.4,0.3-0.6,0.3c-0.5,0-0.9-0.4-0.9-1.1v-0.7h-0.7v0.6c0,0.7,0.2,1,0.5,1.3
		c0.3,0.3,0.7,0.4,1.2,0.4c0.5,0,0.9-0.2,1.2-0.5C411,259.2,411.2,258.8,411.2,257.4"/>
	<path class="st8" d="M433,225.6c0,1.1-0.1,1.6-0.3,1.9c-0.2,0.2-0.4,0.3-0.7,0.3s-0.5-0.1-0.7-0.3c-0.3-0.3-0.3-0.8-0.3-1.9
		c0-1.1,0.1-1.7,0.3-1.9c0.2-0.2,0.4-0.3,0.7-0.3s0.5,0.1,0.7,0.3C432.9,224,433,224.5,433,225.6 M433.7,225.6
		c0-1.4-0.1-1.9-0.5-2.4c-0.3-0.3-0.7-0.5-1.2-0.5c-0.5,0-1,0.2-1.2,0.5c-0.4,0.4-0.5,0.9-0.5,2.4c0,1.6,0.1,2,0.5,2.4
		c0.3,0.3,0.6,0.5,1.1,0.5c0.3,0,0.6-0.1,0.8-0.3l-1.5,4h0.7l1.5-4.1C433.6,227.4,433.7,226.7,433.7,225.6 M428.2,230.6
		c0,0.7-0.4,1.1-0.9,1.1c-0.5,0-0.9-0.4-0.9-1.1v-6.1c0-0.7,0.4-1.1,0.9-1.1c0.5,0,0.9,0.4,0.9,1.1V230.6z M428.9,230.5v-6
		c0-0.6-0.2-1-0.5-1.3c-0.3-0.3-0.7-0.5-1.2-0.5c-0.5,0-0.9,0.2-1.2,0.5c-0.3,0.3-0.5,0.7-0.5,1.3v6c0,0.6,0.2,1,0.5,1.3
		c0.3,0.3,0.7,0.5,1.2,0.5c0.5,0,0.9-0.2,1.2-0.5C428.7,231.6,428.9,231.2,428.9,230.5 M424.2,228.2h-2.5v0.7h2.5V228.2z
		 M420.2,229.6c0-1.3-0.1-1.6-0.3-2c-0.1-0.2-0.3-0.3-0.5-0.4c0.2-0.1,0.4-0.3,0.5-0.5c0.2-0.3,0.3-0.7,0.3-1.6
		c0-1.1-0.1-1.6-0.5-1.9c-0.3-0.3-0.7-0.4-1.2-0.4c-0.5,0-0.9,0.2-1.1,0.4c-0.3,0.3-0.5,0.7-0.5,1.3v0.6h0.7v-0.7
		c0-0.7,0.4-1.1,0.9-1.1c0.3,0,0.5,0.1,0.6,0.2c0.2,0.2,0.3,0.6,0.3,1.5c0,0.9-0.1,1.3-0.3,1.5c-0.1,0.2-0.3,0.2-0.6,0.2H418v0.6
		h0.5c0.3,0,0.5,0.1,0.7,0.3c0.3,0.3,0.3,0.5,0.3,1.8c0,1.1-0.1,1.5-0.3,1.8c-0.2,0.2-0.4,0.3-0.6,0.3c-0.5,0-0.9-0.4-0.9-1.1v-0.7
		h-0.7v0.6c0,0.7,0.2,1,0.5,1.3c0.3,0.3,0.7,0.4,1.2,0.4c0.5,0,0.9-0.2,1.2-0.5C420.1,231.4,420.2,230.9,420.2,229.6"/>
	<path class="st8" d="M505.5,233.6h-1.9l0.9-4.7L505.5,233.6z M506.9,236.9l-2.1-9.4h-0.7l-2.1,9.4h0.8l0.5-2.6h2.2l0.5,2.6H506.9z
		 M500.6,229.8c0,0.9-0.1,1.3-0.3,1.5c-0.1,0.2-0.4,0.2-0.6,0.2s-0.4-0.1-0.6-0.2c-0.2-0.2-0.3-0.6-0.3-1.5c0-0.9,0.1-1.3,0.3-1.5
		c0.2-0.2,0.4-0.2,0.6-0.2s0.4,0.1,0.6,0.2C500.5,228.5,500.6,228.8,500.6,229.8 M500.6,234.3c0,1.1-0.1,1.5-0.3,1.8
		c-0.2,0.2-0.4,0.3-0.6,0.3c-0.2,0-0.5-0.1-0.6-0.3c-0.3-0.3-0.3-0.7-0.3-1.8c0-1.3,0.1-1.5,0.3-1.8c0.2-0.2,0.4-0.3,0.6-0.3
		c0.3,0,0.5,0.1,0.6,0.3C500.5,232.7,500.6,233,500.6,234.3 M501.4,234.3c0-1.3-0.1-1.6-0.3-2c-0.1-0.2-0.3-0.3-0.5-0.5
		c0.2-0.1,0.4-0.3,0.5-0.5c0.2-0.3,0.3-0.7,0.3-1.6c0-1.1-0.1-1.6-0.5-1.9c-0.3-0.3-0.7-0.4-1.1-0.4c-0.5,0-0.9,0.2-1.1,0.4
		c-0.4,0.4-0.5,0.8-0.5,1.9c0,0.9,0.1,1.3,0.3,1.6c0.1,0.2,0.3,0.4,0.5,0.5c-0.2,0.1-0.4,0.3-0.5,0.5c-0.3,0.4-0.3,0.7-0.3,2
		c0,1.3,0.1,1.8,0.5,2.2c0.3,0.3,0.7,0.5,1.2,0.5c0.5,0,0.9-0.2,1.2-0.5C501.3,236.1,501.4,235.6,501.4,234.3 M495.8,235.2
		c0,0.7-0.4,1.1-0.9,1.1c-0.5,0-0.9-0.4-0.9-1.1v-6.1c0-0.7,0.4-1.1,0.9-1.1c0.5,0,0.9,0.4,0.9,1.1V235.2z M496.6,235.2v-6
		c0-0.6-0.2-1-0.5-1.3c-0.3-0.3-0.7-0.5-1.2-0.5s-0.9,0.2-1.2,0.5c-0.3,0.3-0.5,0.7-0.5,1.3v6c0,0.6,0.2,1,0.5,1.3
		c0.3,0.3,0.7,0.5,1.2,0.5s0.9-0.2,1.2-0.5C496.4,236.2,496.6,235.8,496.6,235.2 M491.8,232.9h-2.5v0.7h2.5V232.9z M487.9,234.3
		c0-1.3-0.1-1.6-0.3-2c-0.1-0.2-0.3-0.3-0.5-0.4c0.2-0.1,0.4-0.3,0.5-0.5c0.2-0.3,0.3-0.7,0.3-1.6c0-1.1-0.1-1.6-0.5-1.9
		c-0.3-0.3-0.7-0.4-1.2-0.4c-0.5,0-0.9,0.2-1.1,0.4c-0.3,0.3-0.5,0.7-0.5,1.3v0.6h0.7v-0.7c0-0.7,0.4-1.1,0.9-1.1
		c0.3,0,0.5,0.1,0.6,0.2c0.2,0.2,0.3,0.6,0.3,1.5c0,0.9-0.1,1.3-0.3,1.5c-0.1,0.2-0.3,0.2-0.6,0.2h-0.5v0.6h0.5
		c0.3,0,0.5,0.1,0.7,0.3c0.2,0.3,0.3,0.5,0.3,1.8c0,1.1-0.1,1.5-0.3,1.8c-0.2,0.2-0.4,0.3-0.6,0.3c-0.5,0-0.9-0.4-0.9-1.1v-0.7h-0.7
		v0.6c0,0.7,0.2,1,0.5,1.3c0.3,0.3,0.7,0.4,1.2,0.4c0.5,0,0.9-0.2,1.2-0.5C487.8,236.1,487.9,235.6,487.9,234.3"/>
	<path class="st8" d="M506.5,248.5c0,1.2-0.3,1.9-1.2,1.9h-1.1v-3.8h1.1C506.2,246.6,506.5,247.3,506.5,248.5 M507.3,248.6
		c0-2-0.7-2.6-2-2.6h-1.1v-3.4h2.8v-0.7h-3.5v9.4h1.9C506.4,251.2,507.3,250.8,507.3,248.6 M501,244.1c0,0.9-0.1,1.3-0.3,1.5
		c-0.1,0.2-0.4,0.2-0.6,0.2s-0.4-0.1-0.6-0.2c-0.2-0.2-0.3-0.6-0.3-1.5c0-0.9,0.1-1.3,0.3-1.5c0.2-0.2,0.4-0.2,0.6-0.2
		s0.4,0.1,0.6,0.2C500.9,242.8,501,243.1,501,244.1 M501,248.6c0,1.1-0.1,1.5-0.3,1.8c-0.2,0.2-0.4,0.3-0.6,0.3
		c-0.2,0-0.5-0.1-0.6-0.3c-0.3-0.3-0.3-0.7-0.3-1.8c0-1.3,0.1-1.5,0.3-1.8c0.2-0.2,0.4-0.3,0.6-0.3c0.3,0,0.5,0.1,0.6,0.3
		C501,247,501,247.3,501,248.6 M501.8,248.6c0-1.3-0.1-1.6-0.3-2c-0.1-0.2-0.3-0.3-0.5-0.5c0.2-0.1,0.4-0.3,0.5-0.5
		c0.2-0.3,0.3-0.7,0.3-1.6c0-1.1-0.1-1.6-0.5-1.9c-0.3-0.3-0.7-0.4-1.1-0.4c-0.5,0-0.9,0.2-1.1,0.4c-0.4,0.4-0.5,0.8-0.5,1.9
		c0,0.9,0.1,1.3,0.3,1.6c0.1,0.2,0.3,0.4,0.5,0.5c-0.2,0.1-0.4,0.3-0.5,0.5c-0.3,0.4-0.3,0.7-0.3,2c0,1.3,0.1,1.8,0.5,2.2
		c0.3,0.3,0.7,0.5,1.2,0.5c0.5,0,0.9-0.2,1.2-0.5C501.7,250.4,501.8,249.9,501.8,248.6 M496.2,249.5c0,0.7-0.4,1.1-0.9,1.1
		c-0.5,0-0.9-0.4-0.9-1.1v-6.1c0-0.7,0.4-1.1,0.9-1.1c0.5,0,0.9,0.4,0.9,1.1V249.5z M497,249.5v-6c0-0.6-0.2-1-0.5-1.3
		c-0.3-0.3-0.7-0.5-1.2-0.5c-0.5,0-0.9,0.2-1.2,0.5c-0.3,0.3-0.5,0.7-0.5,1.3v6c0,0.6,0.2,1,0.5,1.3c0.3,0.3,0.7,0.5,1.2,0.5
		c0.5,0,0.9-0.2,1.2-0.5C496.8,250.5,497,250.1,497,249.5 M492.2,247.2h-2.5v0.7h2.5V247.2z M488.3,248.6c0-1.3-0.1-1.6-0.3-2
		c-0.1-0.2-0.3-0.3-0.5-0.4c0.2-0.1,0.4-0.3,0.5-0.5c0.2-0.3,0.3-0.7,0.3-1.6c0-1.1-0.1-1.6-0.5-1.9c-0.3-0.3-0.7-0.4-1.2-0.4
		c-0.5,0-0.9,0.2-1.1,0.4c-0.3,0.3-0.5,0.7-0.5,1.3v0.6h0.7v-0.7c0-0.7,0.4-1.1,0.9-1.1c0.3,0,0.5,0.1,0.6,0.2
		c0.2,0.2,0.3,0.6,0.3,1.5c0,0.9-0.1,1.3-0.3,1.5c-0.1,0.2-0.3,0.2-0.6,0.2H486v0.6h0.5c0.3,0,0.5,0.1,0.7,0.3
		c0.2,0.3,0.3,0.5,0.3,1.8c0,1.1-0.1,1.5-0.3,1.8c-0.2,0.2-0.4,0.3-0.6,0.3c-0.5,0-0.9-0.4-0.9-1.1v-0.7h-0.7v0.6
		c0,0.7,0.2,1,0.5,1.3c0.3,0.3,0.7,0.4,1.2,0.4c0.5,0,0.9-0.2,1.2-0.5C488.2,250.4,488.3,249.9,488.3,248.6"/>
	<path class="st8" d="M486.4,295v-0.6h-3.5v2.2h0.7V295h2l-2.5,8.7h0.8L486.4,295z M480.8,302.1c0,0.7-0.4,1.1-0.9,1.1
		c-0.5,0-0.9-0.4-0.9-1.1V296c0-0.7,0.4-1.1,0.9-1.1c0.5,0,0.9,0.4,0.9,1.1V302.1z M481.5,302.1v-6c0-0.6-0.2-1-0.5-1.3
		c-0.3-0.3-0.7-0.5-1.2-0.5s-0.9,0.2-1.2,0.5c-0.3,0.3-0.5,0.7-0.5,1.3v6c0,0.6,0.2,1,0.5,1.3c0.3,0.3,0.7,0.5,1.2,0.5
		s0.9-0.2,1.2-0.5C481.3,303.1,481.5,302.7,481.5,302.1 M476.8,299.7h-2.5v0.7h2.5V299.7z M472.8,301.2c0-1.3-0.1-1.6-0.3-2
		c-0.1-0.2-0.3-0.3-0.5-0.4c0.2-0.1,0.4-0.3,0.5-0.5c0.2-0.3,0.3-0.7,0.3-1.6c0-1.1-0.1-1.6-0.5-1.9c-0.3-0.3-0.7-0.4-1.2-0.4
		c-0.5,0-0.9,0.2-1.1,0.4c-0.3,0.3-0.5,0.7-0.5,1.3v0.6h0.7V296c0-0.7,0.4-1.1,0.9-1.1c0.3,0,0.5,0.1,0.6,0.2
		c0.2,0.2,0.3,0.6,0.3,1.5c0,0.9-0.1,1.3-0.3,1.5c-0.1,0.2-0.3,0.2-0.6,0.2h-0.5v0.6h0.5c0.3,0,0.5,0.1,0.7,0.3
		c0.3,0.3,0.3,0.5,0.3,1.8c0,1.1-0.1,1.5-0.3,1.8c-0.2,0.2-0.4,0.3-0.6,0.3c-0.5,0-0.9-0.4-0.9-1.1v-0.7h-0.7v0.6
		c0,0.7,0.2,1,0.5,1.3c0.3,0.3,0.7,0.4,1.2,0.4c0.5,0,0.9-0.2,1.2-0.5C472.7,302.9,472.8,302.5,472.8,301.2"/>
	<path class="st8" d="M266.4,336.7V336h-3.2v9.4h0.8v-8.7H266.4z M261.6,341.4h-2.5v0.7h2.5V341.4z M257.6,342.8
		c0-1.3-0.1-1.6-0.3-2c-0.1-0.2-0.3-0.3-0.5-0.4c0.2-0.1,0.4-0.3,0.5-0.5c0.2-0.3,0.3-0.7,0.3-1.6c0-1.1-0.1-1.6-0.5-1.9
		c-0.3-0.3-0.7-0.4-1.2-0.4c-0.5,0-0.9,0.2-1.1,0.4c-0.3,0.3-0.5,0.7-0.5,1.3v0.6h0.7v-0.7c0-0.7,0.4-1.1,0.9-1.1
		c0.3,0,0.5,0.1,0.6,0.2c0.2,0.2,0.3,0.6,0.3,1.5c0,0.9-0.1,1.3-0.3,1.5c-0.1,0.2-0.3,0.2-0.6,0.2h-0.5v0.6h0.5
		c0.3,0,0.5,0.1,0.7,0.3c0.2,0.3,0.3,0.5,0.3,1.8c0,1.1-0.1,1.5-0.3,1.8c-0.2,0.2-0.4,0.3-0.6,0.3c-0.5,0-0.9-0.4-0.9-1.1v-0.7h-0.7
		v0.6c0,0.7,0.2,1,0.5,1.3c0.3,0.3,0.7,0.4,1.2,0.4c0.5,0,0.9-0.2,1.2-0.5C257.5,344.6,257.6,344.1,257.6,342.8"/>
	<path class="st8" d="M430.5,169.7v1.9l-4.7-0.9L430.5,169.7z M433.8,168.2l-9.4,2.1v0.7l9.4,2.1v-0.8l-2.6-0.5v-2.2l2.6-0.5V168.2z
		 M433.8,175h-9.4v0.7l1.1,1.3h0.9l-1.2-1.3h8.5V175z M433.8,179.7h-9.4v0.7l1.1,1.3h0.9l-1.2-1.3h8.5V179.7z M430.5,183.4h-0.7v2.5
		h0.7V183.4z M431.2,187.3c-1.3,0-1.6,0.1-2,0.3c-0.2,0.1-0.3,0.3-0.4,0.5c-0.1-0.2-0.3-0.4-0.5-0.5c-0.3-0.2-0.7-0.3-1.6-0.3
		c-1.1,0-1.6,0.1-1.9,0.5c-0.3,0.3-0.4,0.7-0.4,1.2c0,0.5,0.2,0.9,0.4,1.1c0.3,0.3,0.7,0.5,1.3,0.5h0.6v-0.7h-0.7
		c-0.7,0-1.1-0.4-1.1-0.9c0-0.3,0.1-0.5,0.2-0.6c0.2-0.2,0.6-0.3,1.5-0.3c0.9,0,1.3,0.1,1.5,0.3c0.2,0.1,0.2,0.3,0.2,0.6v0.5h0.6
		V189c0-0.3,0.1-0.5,0.3-0.7c0.3-0.3,0.5-0.3,1.8-0.3c1.1,0,1.5,0.1,1.7,0.3c0.2,0.2,0.3,0.4,0.3,0.6c0,0.5-0.4,0.9-1.1,0.9h-0.7
		v0.7h0.6c0.7,0,1-0.2,1.3-0.5c0.3-0.3,0.4-0.7,0.4-1.2c0-0.5-0.2-0.9-0.5-1.2C433,187.4,432.5,187.3,431.2,187.3"/>
	<path class="st8" d="M328.9,112.3v-0.7h-0.7V109h-0.7v2.6h-1.7l2.4-7.1h-0.7l-2.4,7.1v0.7h2.5v1.6h0.7v-1.6H328.9z M322.8,113.9
		v-9.4H322l-1.3,1.1v0.9l1.3-1.2v8.5H322.8z M319.1,109.9h-2.5v0.7h2.5V109.9z M315.2,111.4c0-1.3-0.1-1.6-0.3-2
		c-0.1-0.2-0.3-0.3-0.5-0.4c0.2-0.1,0.4-0.3,0.5-0.5c0.2-0.3,0.3-0.7,0.3-1.6c0-1.1-0.1-1.6-0.5-1.9c-0.3-0.3-0.7-0.4-1.2-0.4
		c-0.5,0-0.9,0.2-1.1,0.4c-0.3,0.3-0.5,0.7-0.5,1.3v0.6h0.7v-0.7c0-0.7,0.4-1.1,0.9-1.1c0.3,0,0.5,0.1,0.6,0.2
		c0.2,0.2,0.3,0.6,0.3,1.5c0,0.9-0.1,1.3-0.3,1.5c-0.1,0.2-0.3,0.2-0.6,0.2h-0.5v0.6h0.5c0.3,0,0.5,0.1,0.7,0.3
		c0.2,0.3,0.3,0.5,0.3,1.8c0,1.1-0.1,1.5-0.3,1.8c-0.2,0.2-0.4,0.3-0.6,0.3c-0.5,0-0.9-0.4-0.9-1.1v-0.7h-0.7v0.6
		c0,0.7,0.2,1,0.5,1.3c0.3,0.3,0.7,0.4,1.2,0.4c0.5,0,0.9-0.2,1.2-0.5C315.1,113.1,315.2,112.7,315.2,111.4"/>
	<path class="st8" d="M382,144.5c0-1.3-0.1-1.6-0.3-2c-0.1-0.2-0.3-0.3-0.5-0.4c0.2-0.1,0.4-0.3,0.5-0.5c0.2-0.3,0.3-0.7,0.3-1.6
		c0-1.1-0.1-1.6-0.5-1.9c-0.3-0.3-0.7-0.4-1.2-0.4c-0.5,0-0.9,0.2-1.1,0.4c-0.3,0.3-0.5,0.7-0.5,1.3v0.6h0.7v-0.7
		c0-0.7,0.4-1.1,0.9-1.1c0.3,0,0.5,0.1,0.6,0.2c0.2,0.2,0.3,0.6,0.3,1.5c0,0.9-0.1,1.3-0.3,1.5c-0.1,0.2-0.3,0.2-0.6,0.2h-0.5v0.6
		h0.5c0.3,0,0.5,0.1,0.7,0.3c0.3,0.3,0.3,0.5,0.3,1.8c0,1.1-0.1,1.5-0.3,1.8c-0.2,0.2-0.4,0.3-0.6,0.3c-0.5,0-0.9-0.4-0.9-1.1v-0.7
		h-0.7v0.6c0,0.7,0.2,1,0.5,1.3c0.3,0.3,0.7,0.4,1.2,0.4c0.5,0,0.9-0.2,1.2-0.5C381.9,146.3,382,145.8,382,144.5 M376.2,147.1v-9.4
		h-0.7l-1.3,1.1v0.9l1.3-1.2v8.5H376.2z M372.5,143.1H370v0.7h2.5V143.1z M368.6,144.5c0-1.3-0.1-1.6-0.3-2
		c-0.1-0.2-0.3-0.3-0.5-0.4c0.2-0.1,0.4-0.3,0.5-0.5c0.2-0.3,0.3-0.7,0.3-1.6c0-1.1-0.1-1.6-0.5-1.9c-0.3-0.3-0.7-0.4-1.2-0.4
		c-0.5,0-0.9,0.2-1.1,0.4c-0.3,0.3-0.5,0.7-0.5,1.3v0.6h0.7v-0.7c0-0.7,0.4-1.1,0.9-1.1c0.3,0,0.5,0.1,0.6,0.2
		c0.2,0.2,0.3,0.6,0.3,1.5c0,0.9-0.1,1.3-0.3,1.5c-0.1,0.2-0.3,0.2-0.6,0.2h-0.5v0.6h0.5c0.3,0,0.5,0.1,0.7,0.3
		c0.2,0.3,0.3,0.5,0.3,1.8c0,1.1-0.1,1.5-0.3,1.8c-0.2,0.2-0.4,0.3-0.6,0.3c-0.5,0-0.9-0.4-0.9-1.1v-0.7h-0.7v0.6
		c0,0.7,0.2,1,0.5,1.3c0.3,0.3,0.7,0.4,1.2,0.4c0.5,0,0.9-0.2,1.2-0.5C368.5,146.3,368.6,145.8,368.6,144.5"/>
	<path class="st8" d="M274.2,96.2c0-1.6-0.1-2.1-0.5-2.6c-0.2-0.3-0.6-0.5-1.1-0.5c-0.3,0-0.5,0.1-0.7,0.2c-0.2,0.1-0.3,0.3-0.4,0.4
		v-3.3h2.6v-0.7h-3.2v5.5h0.7v-0.4c0-0.7,0.4-1.1,0.9-1.1c0.3,0,0.5,0.1,0.7,0.3c0.2,0.3,0.3,0.7,0.3,2.1c0,1.4-0.1,1.7-0.3,2.1
		c-0.2,0.2-0.4,0.3-0.6,0.3c-0.5,0-1-0.4-1-1.1v-0.6h-0.7v0.6c0,0.7,0.2,1.1,0.5,1.3c0.3,0.3,0.7,0.4,1.2,0.4s0.9-0.2,1.2-0.5
		C274.1,98.2,274.2,97.6,274.2,96.2 M268.3,99.1v-9.4h-0.7l-1.3,1.1v0.9l1.3-1.2v8.5H268.3z M264.6,95.1h-2.5v0.7h2.5V95.1z
		 M260.7,96.6c0-1.3-0.1-1.6-0.3-2c-0.1-0.2-0.3-0.3-0.5-0.4c0.2-0.1,0.4-0.3,0.5-0.5c0.2-0.3,0.3-0.7,0.3-1.6
		c0-1.1-0.1-1.6-0.5-1.9c-0.3-0.3-0.7-0.4-1.2-0.4c-0.5,0-0.9,0.2-1.1,0.4c-0.3,0.3-0.5,0.7-0.5,1.3v0.6h0.7v-0.7
		c0-0.7,0.4-1.1,0.9-1.1c0.3,0,0.5,0.1,0.6,0.2c0.2,0.2,0.3,0.6,0.3,1.5c0,0.9-0.1,1.3-0.3,1.5c-0.1,0.2-0.3,0.2-0.6,0.2h-0.5v0.6
		h0.5c0.3,0,0.5,0.1,0.7,0.3c0.3,0.3,0.3,0.5,0.3,1.8c0,1.1-0.1,1.5-0.3,1.8c-0.2,0.2-0.4,0.3-0.6,0.3c-0.5,0-0.9-0.4-0.9-1.1v-0.7
		h-0.7v0.6c0,0.7,0.2,1,0.5,1.3c0.3,0.3,0.7,0.4,1.2,0.4c0.5,0,0.9-0.2,1.2-0.5C260.6,98.3,260.7,97.9,260.7,96.6"/>
	<path class="st8" d="M213.9,96.6c0,1.1-0.1,1.7-0.3,1.9c-0.2,0.2-0.4,0.3-0.7,0.3c-0.2,0-0.5-0.1-0.7-0.3c-0.2-0.3-0.3-0.8-0.3-1.9
		c0-1.1,0.1-1.6,0.3-1.9c0.2-0.2,0.4-0.3,0.7-0.3c0.3,0,0.5,0.1,0.7,0.3C213.8,94.9,213.9,95.4,213.9,96.6 M214.6,96.6
		c0-1.6-0.1-2-0.5-2.4c-0.3-0.3-0.6-0.5-1.1-0.5c-0.3,0-0.6,0.1-0.8,0.3l1.5-4h-0.7l-1.5,4.1c-0.3,0.7-0.4,1.5-0.4,2.5
		c0,1.4,0.1,1.9,0.5,2.4c0.3,0.3,0.7,0.5,1.2,0.5c0.5,0,1-0.2,1.2-0.5C214.6,98.5,214.6,98,214.6,96.6 M208.7,99.3V90H208l-1.3,1.1
		V92l1.3-1.2v8.5H208.7z M205.1,95.3h-2.5V96h2.5V95.3z M201.1,96.8c0-1.3-0.1-1.6-0.3-2c-0.1-0.2-0.3-0.3-0.5-0.4
		c0.2-0.1,0.4-0.3,0.5-0.5c0.2-0.3,0.3-0.7,0.3-1.6c0-1.1-0.1-1.6-0.5-1.9c-0.3-0.3-0.7-0.4-1.2-0.4c-0.5,0-0.9,0.2-1.1,0.4
		c-0.3,0.3-0.5,0.7-0.5,1.3v0.6h0.7v-0.7c0-0.7,0.4-1.1,0.9-1.1c0.3,0,0.5,0.1,0.6,0.2c0.2,0.2,0.3,0.6,0.3,1.5
		c0,0.9-0.1,1.3-0.3,1.5c-0.1,0.2-0.3,0.2-0.6,0.2h-0.5v0.6h0.5c0.3,0,0.5,0.1,0.7,0.3c0.3,0.3,0.3,0.5,0.3,1.8
		c0,1.1-0.1,1.5-0.3,1.8c-0.2,0.2-0.4,0.3-0.6,0.3c-0.5,0-0.9-0.4-0.9-1.1V97h-0.7v0.6c0,0.7,0.2,1,0.5,1.3c0.3,0.3,0.7,0.4,1.2,0.4
		c0.5,0,0.9-0.2,1.2-0.5C201,98.5,201.1,98.1,201.1,96.8"/>
	<path class="st8" d="M358.6,313.8c0-1.6-0.1-2.1-0.5-2.6c-0.2-0.3-0.6-0.5-1.1-0.5c-0.3,0-0.5,0.1-0.7,0.2
		c-0.2,0.1-0.3,0.3-0.4,0.4V308h2.5v-0.7h-3.2v5.5h0.7v-0.4c0-0.7,0.4-1.1,0.9-1.1c0.3,0,0.5,0.1,0.7,0.3c0.2,0.3,0.3,0.7,0.3,2.1
		c0,1.4-0.1,1.7-0.3,2.1c-0.2,0.2-0.4,0.3-0.6,0.3c-0.5,0-1-0.4-1-1.1v-0.6h-0.7v0.6c0,0.7,0.2,1.1,0.5,1.3c0.3,0.3,0.7,0.4,1.2,0.4
		c0.5,0,0.9-0.2,1.2-0.5C358.5,315.8,358.6,315.2,358.6,313.8 M353,315.1c0,0.7-0.4,1.1-0.9,1.1c-0.5,0-0.9-0.4-0.9-1.1V309
		c0-0.7,0.4-1.1,0.9-1.1c0.5,0,0.9,0.4,0.9,1.1V315.1z M353.8,315v-6c0-0.6-0.2-1-0.5-1.3c-0.3-0.3-0.7-0.5-1.2-0.5
		c-0.5,0-0.9,0.2-1.2,0.5c-0.3,0.3-0.5,0.7-0.5,1.3v6c0,0.6,0.2,1,0.5,1.3c0.3,0.3,0.7,0.5,1.2,0.5c0.5,0,0.9-0.2,1.2-0.5
		C353.6,316.1,353.8,315.7,353.8,315 M349,312.7h-2.5v0.7h2.5V312.7z M345,314.1c0-1.3-0.1-1.6-0.3-2c-0.1-0.2-0.3-0.3-0.5-0.4
		c0.2-0.1,0.4-0.3,0.5-0.5c0.2-0.3,0.3-0.7,0.3-1.6c0-1.1-0.1-1.6-0.5-1.9c-0.3-0.3-0.7-0.4-1.2-0.4c-0.5,0-0.9,0.2-1.1,0.4
		c-0.3,0.3-0.5,0.7-0.5,1.3v0.6h0.7V309c0-0.7,0.4-1.1,0.9-1.1c0.3,0,0.5,0.1,0.6,0.3c0.2,0.2,0.3,0.6,0.3,1.5
		c0,0.9-0.1,1.3-0.3,1.5c-0.1,0.2-0.3,0.2-0.6,0.2h-0.5v0.6h0.5c0.3,0,0.5,0.1,0.7,0.3c0.2,0.3,0.3,0.5,0.3,1.8
		c0,1.1-0.1,1.5-0.3,1.8c-0.2,0.2-0.4,0.3-0.6,0.3c-0.5,0-0.9-0.4-0.9-1.1v-0.7h-0.7v0.6c0,0.7,0.2,1,0.5,1.3
		c0.3,0.3,0.7,0.4,1.2,0.4c0.5,0,0.9-0.2,1.2-0.5C344.9,315.9,345,315.4,345,314.1"/>
	<path class="st8" d="M494.1,181.6c0,0.7-0.4,1.1-0.9,1.1c-0.5,0-0.9-0.4-0.9-1.1v-6.1c0-0.7,0.4-1.1,0.9-1.1c0.5,0,0.9,0.4,0.9,1.1
		V181.6z M494.8,181.6v-6c0-0.6-0.2-1-0.5-1.3c-0.3-0.3-0.7-0.5-1.2-0.5c-0.5,0-0.9,0.2-1.2,0.5c-0.3,0.3-0.5,0.7-0.5,1.3v6
		c0,0.6,0.2,1,0.5,1.3c0.3,0.3,0.7,0.5,1.2,0.5c0.5,0,0.9-0.2,1.2-0.5C494.6,182.6,494.8,182.2,494.8,181.6 M488.9,183.3v-9.4h-0.7
		l-1.3,1.1v0.9l1.3-1.2v8.5H488.9z M485.3,179.3h-2.5v0.7h2.5V179.3z M481.4,180.7c0-1.3-0.1-1.6-0.3-2c-0.1-0.2-0.3-0.3-0.5-0.4
		c0.2-0.1,0.4-0.3,0.5-0.5c0.2-0.3,0.3-0.7,0.3-1.6c0-1.1-0.1-1.6-0.5-1.9c-0.3-0.3-0.7-0.4-1.2-0.4c-0.5,0-0.9,0.2-1.1,0.4
		c-0.3,0.3-0.5,0.7-0.5,1.3v0.6h0.7v-0.7c0-0.7,0.4-1.1,0.9-1.1c0.3,0,0.5,0.1,0.6,0.2c0.2,0.2,0.3,0.6,0.3,1.5
		c0,0.9-0.1,1.3-0.3,1.5c-0.1,0.2-0.3,0.2-0.6,0.2h-0.5v0.6h0.5c0.3,0,0.5,0.1,0.7,0.3c0.3,0.3,0.3,0.5,0.3,1.8
		c0,1.1-0.1,1.5-0.3,1.8c-0.2,0.2-0.4,0.3-0.6,0.3c-0.5,0-0.9-0.4-0.9-1.1V181H478v0.6c0,0.7,0.2,1,0.5,1.3c0.3,0.3,0.7,0.4,1.2,0.4
		c0.5,0,0.9-0.2,1.2-0.5C481.3,182.5,481.4,182,481.4,180.7"/>
	<path class="st8" d="M222.8,142.3c0,1.3-0.5,1.7-1.3,1.7h-0.9v-3.5h0.9C222.4,140.6,222.8,141,222.8,142.3 M222.9,146.7
		c0,1.5-0.5,1.9-1.4,1.9h-0.9v-3.8h0.9C222.4,144.7,222.9,145.3,222.9,146.7 M223.7,146.7c0-0.7-0.1-1.4-0.6-1.9
		c-0.2-0.2-0.4-0.3-0.7-0.4c0.2-0.1,0.4-0.2,0.6-0.4c0.5-0.5,0.6-1.1,0.6-1.7c0-1-0.1-1.4-0.5-1.9c-0.4-0.4-0.8-0.5-1.6-0.5h-1.7
		v9.4h1.7c0.8,0,1.2-0.2,1.6-0.5C223.5,148.3,223.7,147.9,223.7,146.7 M218.3,149.3v-0.7h-2.6l2.1-4.9c0.3-0.6,0.5-1.5,0.5-2.2
		c0-0.6-0.2-1.1-0.5-1.3c-0.3-0.3-0.7-0.4-1.2-0.4c-0.5,0-0.9,0.2-1.2,0.5c-0.3,0.3-0.5,0.7-0.5,1.3v0.7h0.7v-0.7
		c0-0.7,0.4-1.1,0.9-1.1c0.5,0,0.9,0.4,0.9,1.1c0,0.8-0.2,1.5-0.4,2l-2.2,5.1v0.6H218.3z M212.7,147.6c0,0.7-0.4,1.1-0.9,1.1
		c-0.5,0-0.9-0.4-0.9-1.1v-6.1c0-0.7,0.4-1.1,0.9-1.1c0.5,0,0.9,0.4,0.9,1.1V147.6z M213.5,147.6v-6c0-0.6-0.2-1-0.5-1.3
		c-0.3-0.3-0.7-0.5-1.2-0.5c-0.5,0-0.9,0.2-1.2,0.5c-0.3,0.3-0.5,0.7-0.5,1.3v6c0,0.6,0.2,1,0.5,1.3c0.3,0.3,0.7,0.5,1.2,0.5
		c0.5,0,0.9-0.2,1.2-0.5C213.3,148.6,213.5,148.2,213.5,147.6 M208.7,145.3h-2.5v0.7h2.5V145.3z M204.8,146.7c0-1.3-0.1-1.6-0.3-2
		c-0.1-0.2-0.3-0.3-0.5-0.4c0.2-0.1,0.4-0.3,0.5-0.5c0.2-0.3,0.3-0.7,0.3-1.6c0-1.1-0.1-1.6-0.5-1.9c-0.3-0.3-0.7-0.4-1.2-0.4
		c-0.5,0-0.9,0.2-1.1,0.4c-0.3,0.3-0.5,0.7-0.5,1.3v0.6h0.7v-0.7c0-0.7,0.4-1.1,0.9-1.1c0.3,0,0.5,0.1,0.6,0.3
		c0.2,0.2,0.3,0.6,0.3,1.5c0,0.9-0.1,1.3-0.3,1.5c-0.1,0.2-0.3,0.2-0.6,0.2h-0.5v0.6h0.5c0.3,0,0.5,0.1,0.7,0.3
		c0.2,0.3,0.3,0.5,0.3,1.8c0,1.1-0.1,1.5-0.3,1.8c-0.2,0.2-0.4,0.3-0.6,0.3c-0.5,0-0.9-0.4-0.9-1.1v-0.7h-0.7v0.6
		c0,0.7,0.2,1,0.5,1.3c0.3,0.3,0.7,0.4,1.2,0.4c0.5,0,0.9-0.2,1.2-0.5C204.7,148.5,204.8,148,204.8,146.7"/>
	<rect x="445.5" y="285.1" class="st7" width="63.7" height="6.2"/>
	<rect x="481.9" y="203.7" class="st7" width="27.2" height="6.2"/>
	<polygon class="st7" points="384.5,180.3 405.8,158.9 410.5,163.8 388.9,184.7 	"/>
	<rect x="457.9" y="153.2" class="st7" width="52" height="6.2"/>
	<polygon class="st7" points="411.8,153.3 439.5,153.3 439.5,159.6 410.2,159.8 407.7,157.2 	"/>
	<rect x="384.5" y="213.6" class="st7" width="82.2" height="6.2"/>
	<rect x="371.1" y="239" class="st7" width="95.6" height="6.2"/>
	<polygon class="st7" points="303,284.4 393.6,284.3 393.6,291.2 301.6,291.1 	"/>
	<polygon class="st9" points="311.5,239.1 369.3,239.1 369.3,245.3 313.8,245.3 	"/>
	<polygon class="st7" points="331.6,198.1 373.5,198.1 377.9,204.1 331.6,204.3 	"/>
	<polygon class="st7" points="132.3,201.4 162.5,175 165.9,180.7 137.3,205.7 	"/>
	<path class="st7" d="M77.8,293.7c-0.1-23,3.3-45.5,9.9-67.5l6,2.1c-7.2,22.4-9.8,42.3-9.7,65.8L77.8,293.7z"/>
	<path class="st7" d="M29.7,289.4c-0.1-23,3.3-45.5,9.9-67.5l6,2.1c-7.2,22.4-9.8,42.3-9.7,65.8L29.7,289.4z"/>
	<path class="st7" d="M38.7,219.6c7.3-21.8,17.7-42,31-60.7l5,3.9c-14,18.9-22.9,36.8-30.3,59.2L38.7,219.6z"/>
	<path class="st7" d="M71.1,156.4c13.6-18.6,28.6-33.8,46.9-47.5l3.2,5.1c-19.1,13.7-31.5,27.4-45.4,46.5L71.1,156.4z"/>
	<path class="st7" d="M111.7,185.7c10.9-13.8,22.9-25,37.3-35l2.7,5c-15,9.9-24.4,18.9-35.6,33.1L111.7,185.7z"/>
	<path class="st7" d="M159.8,146.5c12.2-6.7,18.7-9,29.9-12.1l1.8,5.7c-14.2,3.7-15.3,4.4-28.6,11.5L159.8,146.5z"/>
	<path class="st7" d="M172.3,295.7c1.1-15.2,8.9-38.6,17.7-46.7l3.4,3.5c-11.9,14.4-15.5,32.4-15.2,43.2L172.3,295.7z"/>
	<path class="st7" d="M190.9,247.1c13.2-13.6,33.2-21.6,45-20.4l1,4.5c-18.7,0.5-34.6,12.4-42.6,19.9L190.9,247.1z"/>
	<path class="st7" d="M272.2,326.4c0.3,0.5-19.1,12.6-31.5,12.6c-0.2-1.5-0.3-2.2-0.4-3.7c11.5-0.9,21.2-5.3,29.3-12.7L272.2,326.4z
		"/>
	<path class="st7" d="M192.3,133.1c13.3-4.3,22-5.7,33.6-6.8l0.6,5.8c-16.9,1.8-17.8,2.4-32.2,6.8L192.3,133.1z"/>
	<path class="st7" d="M229.3,127c13.9-1.1,24.1-0.4,35.6,1.2l-0.2,5.9c-16.9-2.1-20-2-35.1-1L229.3,127z"/>
	<path class="st7" d="M266.4,129.4c14.9,2.5,30.9,7.9,41.5,12.7l0,6.3c-15.6-6.9-26.7-9.9-41.4-13.3V129.4z"/>
	<path class="st7" d="M309.7,142.9c10.8,5.2,12.5,6.5,19.7,12.2l-0.1,6.2c-3.2-3.3-11.7-9.4-19.6-12.5L309.7,142.9z"/>
	<path class="st7" d="M331.4,156.1c14.7,8.2,35.7,30.9,41.2,40.1h-6.1c-3.7-5.3-16.6-21.7-35.1-34.2L331.4,156.1z"/>
	<path class="st7" d="M119.3,108.3c15.7-11.7,32.9-20.8,51.3-27.4l1.6,5.2c-19,6.4-34,14.6-50,26.7L119.3,108.3z"/>
	<path class="st7" d="M172.6,80.4c21.3-6.6,42.8-10.1,65.8-10.3l0,5.6c-23.1,0.5-42.4,3-64.2,9.7L172.6,80.4z"/>
	<path class="st7" d="M240.1,70c20.5,0.1,41.1,3.4,61.4,9.3l-1.4,5.3c-20.6-6.4-39-9-60-9V70z"/>
	<path class="st7" d="M303.9,80.7c19.5,6.5,31.5,11.7,48.9,23.7l-3,4.6c-17.6-12.6-27.7-16.3-47.6-23L303.9,80.7z"/>
	<path class="st7" d="M354.5,105.5c18,9.8,42.3,30.7,55.7,46.7l-3.8,4c-13.8-16.1-36.4-36.1-54.8-46.1L354.5,105.5z"/>
	<path class="st8" d="M165.1,200.3h-1.9l0.9-4.7L165.1,200.3z M166.6,203.5l-2.1-9.4h-0.7l-2.1,9.4h0.8l0.5-2.6h2.2l0.5,2.6H166.6z
		 M159.8,203.5v-9.4h-0.7l-1.3,1.1v0.9l1.3-1.2v8.5H159.8z M155.4,201.9c0,0.7-0.4,1.1-0.9,1.1c-0.5,0-0.9-0.4-0.9-1.1v-6.1
		c0-0.7,0.4-1.1,0.9-1.1c0.5,0,0.9,0.4,0.9,1.1V201.9z M156.2,201.8v-6c0-0.6-0.2-1-0.5-1.3c-0.3-0.3-0.7-0.5-1.2-0.5
		c-0.5,0-0.9,0.2-1.2,0.5c-0.3,0.3-0.5,0.7-0.5,1.3v6c0,0.6,0.2,1,0.5,1.3c0.3,0.3,0.7,0.5,1.2,0.5c0.5,0,0.9-0.2,1.2-0.5
		C156,202.9,156.2,202.5,156.2,201.8 M151.4,199.5h-2.5v0.7h2.5V199.5z M147.5,200.9c0-1.3-0.1-1.6-0.3-2c-0.1-0.2-0.3-0.3-0.5-0.4
		c0.2-0.1,0.4-0.3,0.5-0.5c0.2-0.3,0.3-0.7,0.3-1.6c0-1.1-0.1-1.6-0.5-1.9c-0.3-0.3-0.7-0.4-1.2-0.4c-0.5,0-0.9,0.2-1.1,0.4
		c-0.3,0.3-0.5,0.7-0.5,1.3v0.6h0.7v-0.7c0-0.7,0.4-1.1,0.9-1.1c0.3,0,0.5,0.1,0.6,0.2c0.2,0.2,0.3,0.6,0.3,1.5
		c0,0.9-0.1,1.3-0.3,1.5c-0.1,0.2-0.3,0.2-0.6,0.2h-0.5v0.6h0.5c0.3,0,0.5,0.1,0.7,0.3c0.2,0.3,0.3,0.5,0.3,1.8
		c0,1.1-0.1,1.5-0.3,1.8c-0.2,0.2-0.4,0.3-0.6,0.3c-0.5,0-0.9-0.4-0.9-1.1v-0.7h-0.7v0.6c0,0.7,0.2,1,0.5,1.3
		c0.3,0.3,0.7,0.4,1.2,0.4c0.5,0,0.9-0.2,1.2-0.5C147.4,202.7,147.5,202.2,147.5,200.9"/>
	<path class="st8" d="M321.8,154.1c1.2,0,1.9,0.3,1.9,1.2v1.1h-3.8v-1.1C319.9,154.3,320.6,154.1,321.8,154.1 M321.8,153.3
		c-2,0-2.6,0.7-2.6,2v1.1h-3.4v-2.8h-0.7v3.5h9.4v-1.9C324.5,154.2,324,153.3,321.8,153.3 M321.9,158.8c-1.3,0-1.6,0.1-2,0.3
		c-0.2,0.1-0.3,0.3-0.4,0.5c-0.1-0.2-0.3-0.4-0.5-0.5c-0.3-0.2-0.7-0.3-1.6-0.3c-1.1,0-1.6,0.1-1.9,0.5c-0.3,0.3-0.4,0.7-0.4,1.2
		c0,0.5,0.2,0.9,0.4,1.1c0.3,0.3,0.7,0.5,1.3,0.5h0.6v-0.7h-0.7c-0.7,0-1.1-0.4-1.1-0.9c0-0.3,0.1-0.5,0.3-0.6
		c0.2-0.2,0.6-0.3,1.5-0.3c0.9,0,1.3,0.1,1.5,0.3c0.2,0.1,0.2,0.3,0.2,0.6v0.5h0.6v-0.5c0-0.3,0.1-0.5,0.3-0.7
		c0.3-0.2,0.5-0.3,1.8-0.3c1.1,0,1.5,0.1,1.7,0.3c0.2,0.2,0.3,0.4,0.3,0.6c0,0.5-0.4,0.9-1.1,0.9h-0.7v0.7h0.6c0.7,0,1-0.2,1.3-0.5
		c0.3-0.3,0.4-0.7,0.4-1.2c0-0.5-0.2-0.9-0.5-1.2C323.7,158.9,323.2,158.8,321.9,158.8 M322.8,164.3c0.7,0,1.1,0.4,1.1,0.9
		c0,0.5-0.4,0.9-1.1,0.9h-6.1c-0.7,0-1.1-0.4-1.1-0.9c0-0.5,0.4-0.9,1.1-0.9H322.8z M322.8,163.6h-6c-0.6,0-1,0.2-1.3,0.5
		c-0.3,0.3-0.5,0.7-0.5,1.2c0,0.5,0.2,0.9,0.5,1.2c0.3,0.3,0.7,0.5,1.3,0.5h6c0.6,0,1-0.2,1.3-0.5c0.3-0.3,0.5-0.7,0.5-1.2
		c0-0.5-0.2-0.9-0.5-1.2C323.8,163.8,323.4,163.6,322.8,163.6 M321.2,168.3h-0.7v2.5h0.7V168.3z M321.9,172.3c-1.3,0-1.6,0.1-2,0.3
		c-0.2,0.1-0.3,0.3-0.4,0.5c-0.1-0.2-0.3-0.4-0.5-0.5c-0.3-0.2-0.7-0.3-1.6-0.3c-1.1,0-1.6,0.1-1.9,0.5c-0.3,0.3-0.4,0.7-0.4,1.2
		c0,0.5,0.2,0.9,0.4,1.1c0.3,0.3,0.7,0.5,1.3,0.5h0.6v-0.7h-0.7c-0.7,0-1.1-0.4-1.1-0.9c0-0.3,0.1-0.5,0.3-0.6
		c0.2-0.2,0.6-0.3,1.5-0.3c0.9,0,1.3,0.1,1.5,0.3c0.2,0.1,0.2,0.3,0.2,0.6v0.5h0.6V174c0-0.3,0.1-0.5,0.3-0.7
		c0.3-0.3,0.5-0.3,1.8-0.3c1.1,0,1.5,0.1,1.7,0.3c0.2,0.2,0.3,0.4,0.3,0.6c0,0.5-0.4,0.9-1.1,0.9h-0.7v0.7h0.6c0.7,0,1-0.2,1.3-0.5
		c0.3-0.3,0.4-0.7,0.4-1.2c0-0.5-0.2-0.9-0.5-1.2C323.7,172.4,323.2,172.3,321.9,172.3"/>
	<path class="st8" d="M356.8,187.8h-1.9l0.9-4.7L356.8,187.8z M358.3,191.1l-2.1-9.4h-0.7l-2.1,9.4h0.8l0.5-2.6h2.2l0.5,2.6H358.3z
		 M352.7,191.1v-0.7h-2.6l2.1-4.9c0.3-0.6,0.5-1.5,0.5-2.2c0-0.6-0.2-1.1-0.5-1.3c-0.3-0.3-0.7-0.4-1.2-0.4c-0.5,0-0.9,0.2-1.2,0.5
		c-0.3,0.3-0.5,0.7-0.5,1.3v0.7h0.7v-0.7c0-0.7,0.4-1.1,0.9-1.1c0.5,0,0.9,0.4,0.9,1.1c0,0.8-0.2,1.5-0.4,2l-2.2,5.1v0.6H352.7z
		 M346.8,191.1v-9.4H346l-1.3,1.1v0.9l1.3-1.2v8.5H346.8z M343.1,187.1h-2.5v0.7h2.5V187.1z M339.2,188.5c0-1.3-0.1-1.6-0.3-2
		c-0.1-0.2-0.3-0.3-0.5-0.4c0.2-0.1,0.4-0.3,0.5-0.5c0.2-0.3,0.3-0.7,0.3-1.6c0-1.1-0.1-1.6-0.5-1.9c-0.3-0.3-0.7-0.4-1.2-0.4
		c-0.5,0-0.9,0.2-1.1,0.4c-0.3,0.3-0.5,0.7-0.5,1.3v0.6h0.7v-0.7c0-0.7,0.4-1.1,0.9-1.1c0.3,0,0.5,0.1,0.6,0.2
		c0.2,0.2,0.3,0.6,0.3,1.5c0,0.9-0.1,1.3-0.3,1.5c-0.1,0.2-0.3,0.2-0.6,0.2h-0.5v0.6h0.5c0.3,0,0.5,0.1,0.7,0.3
		c0.2,0.3,0.3,0.5,0.3,1.8c0,1.1-0.1,1.5-0.3,1.8c-0.2,0.2-0.4,0.3-0.6,0.3c-0.5,0-0.9-0.4-0.9-1.1v-0.7h-0.7v0.6
		c0,0.7,0.2,1,0.5,1.3c0.3,0.3,0.7,0.4,1.2,0.4c0.5,0,0.9-0.2,1.2-0.5C339.1,190.3,339.2,189.8,339.2,188.5"/>
	<path class="st8" d="M412.5,176c0.8,0.9,1.1,1.6,0.4,2.2l-0.8,0.8l-2.6-2.8l0.8-0.8C411,174.8,411.6,175.1,412.5,176 M413.1,175.5
		c-1.3-1.5-2.3-1.5-3.3-0.6l-0.8,0.8l-2.3-2.6l2-1.9l-0.5-0.5l-2.6,2.4l6.3,6.9l1.4-1.3C414.1,178.1,414.5,177.2,413.1,175.5
		 M409.9,181.9l-6.3-6.9l-0.5,0.5l-0.2,1.7l0.6,0.7l0.2-1.8l5.7,6.3L409.9,181.9z M406.4,185.1l-6.3-6.9l-0.5,0.5l-0.2,1.7l0.6,0.7
		l0.2-1.8l5.7,6.3L406.4,185.1z M401.4,185.1l-0.5-0.5l-1.9,1.7l0.5,0.5L401.4,185.1z M399,188.3c-0.9-1-1.1-1.1-1.6-1.2
		c-0.2,0-0.4,0-0.7,0c0.1-0.2,0.1-0.5,0.1-0.7c-0.1-0.4-0.3-0.7-0.9-1.4c-0.8-0.8-1.2-1.1-1.7-1.1c-0.4,0-0.8,0.1-1.1,0.5
		c-0.3,0.3-0.5,0.7-0.5,1.1c0,0.4,0.1,0.8,0.6,1.3l0.4,0.5l0.5-0.5l-0.5-0.5c-0.5-0.5-0.5-1.1-0.1-1.4c0.2-0.2,0.4-0.3,0.6-0.2
		c0.3,0,0.6,0.2,1.2,0.9c0.6,0.7,0.8,1,0.8,1.3c0,0.2-0.1,0.4-0.3,0.6l-0.4,0.4l0.4,0.5l0.4-0.4c0.2-0.2,0.4-0.3,0.7-0.2
		c0.4,0,0.6,0.2,1.5,1.1c0.8,0.8,0.9,1.2,0.9,1.5c0,0.3-0.1,0.5-0.3,0.6c-0.4,0.3-0.9,0.4-1.4-0.2l-0.4-0.5l-0.5,0.5l0.4,0.5
		c0.4,0.5,0.8,0.6,1.3,0.7c0.4,0,0.8-0.2,1.2-0.5c0.3-0.3,0.6-0.8,0.6-1.1C400.1,189.7,399.9,189.3,399,188.3"/>
	<path class="st8" d="M191.7,274.2h-1.9l0.9-4.7L191.7,274.2z M193.2,277.5l-2.1-9.4h-0.7l-2.1,9.4h0.8l0.5-2.6h2.2l0.5,2.6H193.2z
		 M187.6,273.5h-2.5v0.7h2.5V273.5z M183.6,274.9c0-1.3-0.1-1.6-0.3-2c-0.1-0.2-0.3-0.3-0.5-0.4c0.2-0.1,0.4-0.3,0.5-0.5
		c0.2-0.3,0.3-0.7,0.3-1.6c0-1.1-0.1-1.6-0.5-1.9c-0.3-0.3-0.7-0.4-1.2-0.4c-0.5,0-0.9,0.2-1.1,0.4c-0.3,0.3-0.5,0.7-0.5,1.3v0.6
		h0.7v-0.7c0-0.7,0.4-1.1,0.9-1.1c0.3,0,0.5,0.1,0.6,0.2c0.2,0.2,0.3,0.6,0.3,1.5c0,0.9-0.1,1.3-0.3,1.5c-0.1,0.2-0.3,0.2-0.6,0.2
		h-0.5v0.6h0.5c0.3,0,0.5,0.1,0.7,0.3c0.2,0.3,0.3,0.5,0.3,1.8c0,1.1-0.1,1.5-0.3,1.8c-0.2,0.2-0.4,0.3-0.6,0.3
		c-0.5,0-0.9-0.4-0.9-1.1v-0.7h-0.7v0.6c0,0.7,0.2,1,0.5,1.3c0.3,0.3,0.7,0.4,1.2,0.4c0.5,0,0.9-0.2,1.2-0.5
		C183.5,276.7,183.6,276.2,183.6,274.9"/>
	<path class="st8" d="M218.6,239.3c0,1.3-0.5,1.7-1.3,1.7h-0.9v-3.5h0.9C218.1,237.5,218.6,237.9,218.6,239.3 M218.6,243.6
		c0,1.5-0.5,1.9-1.4,1.9h-0.9v-3.8h0.9C218.1,241.7,218.6,242.2,218.6,243.6 M219.4,243.6c0-0.8-0.1-1.4-0.6-1.9
		c-0.2-0.2-0.4-0.3-0.7-0.4c0.2-0.1,0.4-0.2,0.6-0.4c0.5-0.5,0.6-1.1,0.6-1.7c0-1-0.1-1.4-0.5-1.9c-0.4-0.4-0.8-0.5-1.6-0.5h-1.7
		v9.4h1.7c0.8,0,1.2-0.2,1.6-0.5C219.2,245.2,219.4,244.8,219.4,243.6 M213.9,242.2h-2.5v0.7h2.5V242.2z M210,243.6
		c0-1.3-0.1-1.6-0.3-2c-0.1-0.2-0.3-0.3-0.5-0.4c0.2-0.1,0.4-0.3,0.5-0.5c0.2-0.3,0.3-0.7,0.3-1.6c0-1.1-0.1-1.6-0.5-1.9
		c-0.3-0.3-0.7-0.4-1.2-0.4c-0.5,0-0.9,0.2-1.1,0.4c-0.3,0.3-0.5,0.7-0.5,1.3v0.6h0.7v-0.7c0-0.7,0.4-1.1,0.9-1.1
		c0.3,0,0.5,0.1,0.6,0.2c0.2,0.2,0.3,0.6,0.3,1.5c0,0.9-0.1,1.3-0.3,1.5c-0.1,0.2-0.3,0.2-0.6,0.2h-0.5v0.6h0.5
		c0.3,0,0.5,0.1,0.7,0.3c0.2,0.3,0.3,0.5,0.3,1.8c0,1.1-0.1,1.5-0.3,1.8c-0.2,0.2-0.4,0.3-0.6,0.3c-0.5,0-0.9-0.4-0.9-1.1v-0.7h-0.7
		v0.6c0,0.7,0.2,1,0.5,1.3c0.3,0.3,0.7,0.4,1.2,0.4c0.5,0,0.9-0.2,1.2-0.5C209.9,245.4,210,244.9,210,243.6"/>
	<path class="st2" d="M203.6,218.4c0,5.9-4.8,10.7-10.6,10.7c-5.9,0-10.6-4.8-10.6-10.7c0-5.9,4.8-10.7,10.6-10.7
		C198.8,207.8,203.6,212.6,203.6,218.4"/>
	<path class="st10" d="M187.7,222.6L187.7,222.6h7.6v-7.9h-7.6V222.6z M187,214.1c0.2-0.1,0.4-0.2,0.7-0.2c2.6,0,5.2,0,7.8,0
		c0.6,0,0.7,0.1,0.7,0.7c0,2.7,0,5.4,0,8.1c0,0.6-0.1,0.7-0.7,0.7c-2.6,0-5.2,0-7.8,0c-0.2,0-0.4-0.1-0.7-0.2V214.1z"/>
	<path class="st10" d="M199.4,215.8h-0.8c0,0.6,0,1.2,0,1.8c0,0.4-0.1,0.6-0.5,0.5c-0.1,0-0.3,0-0.4,0c-0.3,0-0.4-0.1-0.4-0.4
		c0-0.6,0-1.2,0-1.8c-0.3,0-0.5,0-0.8-0.1c0.5-0.6,0.9-1.2,1.4-1.8C198.5,214.6,199,215.1,199.4,215.8L199.4,215.8z"/>
	<path class="st10" d="M199.4,221.9c-0.4,0.5-0.9,1-1.4,1.6c-0.5-0.6-0.9-1.1-1.5-1.8c0.3,0,0.6,0,0.8-0.1c0-0.6,0-1.2,0-1.7
		c0-0.4,0.1-0.6,0.5-0.5c0.2,0,0.4,0,0.7,0v2.2c0.3,0,0.5,0,0.8,0.1V221.9z"/>
	<path class="st2" d="M193.9,215.8L193.9,215.8c0-0.4-0.3-0.7-0.7-0.7c-0.4,0-0.7,0.3-0.7,0.7c0,0.4,0.3,0.7,0.7,0.7
		C193.6,216.5,193.9,216.2,193.9,215.8 M189.9,216.5L189.9,216.5c0.4,0,0.7-0.3,0.7-0.7c0-0.4-0.3-0.7-0.7-0.7
		c-0.4,0-0.7,0.3-0.7,0.7C189.2,216.2,189.5,216.5,189.9,216.5 M190.7,217.6L190.7,217.6c0.1,0,0.1,0,0.2,0c0,0.1,0,0.3,0,0.4
		c0,0.5,0,0.9,0,1.4c0,0.1,0.1,0.2,0.2,0.3c0.1-0.1,0.2-0.2,0.2-0.3c0-0.7,0-1.4,0-2c0-0.4-0.3-0.6-0.7-0.6c-0.5,0-1,0-1.5,0
		c-0.4,0-0.6,0.2-0.6,0.5c0,0.7,0,1.4,0,2.1c0,0.1,0.1,0.2,0.2,0.2c0.1-0.1,0.2-0.2,0.2-0.2c0-0.5,0-0.9,0-1.4c0-0.2,0-0.3,0-0.5
		c0,0,0.1,0,0.1,0c0,0.2,0,0.3,0,0.5c0,1.2,0,2.4,0,3.6c0,0.2,0,0.5,0.3,0.5c0.3,0,0.3-0.3,0.3-0.5c0-0.7,0-1.4,0-2
		c0-0.2,0-0.3,0.1-0.5c0.1,0,0.1,0,0.2,0c0,0.1,0,0.3,0,0.4c0,0.7,0,1.3,0,2c0,0.3-0.1,0.6,0.3,0.6c0.4,0,0.3-0.3,0.3-0.6
		c0-0.9,0-1.9,0-2.8C190.7,218.4,190.7,218,190.7,217.6 M193.1,219.2L193.1,219.2c0.1,0,0.1,0,0.2,0c0,0.1,0,0.3,0,0.4
		c0,0.6,0,1.3,0,1.9c0,0.3-0.1,0.6,0.3,0.6c0.4,0,0.3-0.3,0.3-0.6c0-1.2,0-2.4,0-3.6c0-0.2,0-0.3,0-0.5c0,0,0.1,0,0.1,0
		c0,0.2,0,0.3,0,0.5c0,0.4,0,0.9,0,1.3c0,0.1,0.1,0.2,0.2,0.3c0.1-0.1,0.2-0.2,0.2-0.3c0-0.6,0-1.3,0-1.9c0-0.5-0.3-0.7-0.8-0.7
		c-0.4,0-0.9,0-1.3,0c-0.5,0-0.7,0.2-0.8,0.7c0,0.5,0,0.9,0,1.4c0,0.3,0.1,0.5,0.2,0.8c0.4-0.1,0.2-0.5,0.3-0.8c0-0.4,0-0.9,0-1.3
		c0.1,0,0.1,0,0.2,0c0,0.2,0,0.3,0,0.5c0,1.2,0,2.4,0,3.6c0,0.2,0,0.5,0.3,0.5c0.3,0,0.3-0.3,0.3-0.5c0-0.7,0-1.4,0-2
		C193.1,219.5,193.1,219.3,193.1,219.2 M187.7,214.7h7.6v7.9h-7.6V214.7z"/>
	<path class="st10" d="M193.1,219.2c0,0.2-0.1,0.3-0.1,0.5c0,0.7,0,1.4,0,2c0,0.2,0,0.5-0.3,0.5c-0.3,0-0.3-0.3-0.3-0.5
		c0-1.2,0-2.4,0-3.6c0-0.2,0-0.3,0-0.5c-0.1,0-0.1,0-0.2,0c0,0.4,0,0.9,0,1.3c0,0.3,0.2,0.6-0.3,0.8c-0.1-0.3-0.2-0.5-0.2-0.8
		c0-0.5,0-0.9,0-1.4c0-0.5,0.2-0.7,0.8-0.7c0.4,0,0.9,0,1.3,0c0.5,0,0.8,0.2,0.8,0.7c0,0.6,0,1.3,0,1.9c0,0.1-0.2,0.2-0.2,0.3
		c-0.1-0.1-0.2-0.2-0.2-0.3c0-0.4,0-0.9,0-1.3c0-0.2,0-0.3,0-0.5c0,0-0.1,0-0.1,0c0,0.2,0,0.3,0,0.5c0,1.2,0,2.4,0,3.6
		c0,0.3,0.1,0.6-0.3,0.6c-0.4,0-0.3-0.4-0.3-0.6c0-0.6,0-1.3,0-1.9c0-0.1,0-0.3,0-0.4C193.2,219.2,193.2,219.2,193.1,219.2"/>
	<path class="st10" d="M190.7,217.6c0,0.4,0,0.8,0,1.2c0,0.9,0,1.9,0,2.8c0,0.2,0.1,0.6-0.3,0.6c-0.4,0-0.3-0.3-0.3-0.6
		c0-0.7,0-1.3,0-2c0-0.1,0-0.3,0-0.4c-0.1,0-0.1,0-0.2,0c0,0.2-0.1,0.3-0.1,0.5c0,0.7,0,1.4,0,2c0,0.2,0,0.5-0.3,0.5
		c-0.3,0-0.3-0.3-0.3-0.5c0-1.2,0-2.4,0-3.6c0-0.2,0-0.3,0-0.5c-0.1,0-0.1,0-0.1,0c0,0.2,0,0.3,0,0.5c0,0.5,0,0.9,0,1.4
		c0,0.1-0.1,0.2-0.2,0.2c-0.1-0.1-0.2-0.2-0.2-0.2c0-0.7,0-1.4,0-2.1c0-0.3,0.3-0.5,0.6-0.5c0.5,0,1,0,1.5,0c0.4,0,0.7,0.2,0.7,0.6
		c0,0.7,0,1.4,0,2c0,0.1-0.1,0.2-0.2,0.3c-0.1-0.1-0.2-0.2-0.2-0.3c0-0.5,0-0.9,0-1.4c0-0.1,0-0.3,0-0.4
		C190.8,217.6,190.7,217.6,190.7,217.6"/>
	<g>
		<path class="st10" d="M193.9,215.8c0,0.4-0.3,0.7-0.7,0.7c-0.4,0-0.7-0.3-0.7-0.7c0-0.4,0.3-0.7,0.7-0.7
			C193.6,215.1,193.9,215.4,193.9,215.8"/>
	</g>
	<g>
		<rect x="15" y="20" class="st11" width="570" height="360"/>
	</g>
	<g>
		<g>
			<polyline class="st12" points="431.1,338.4 431.1,275.9 347.5,275.9 347.5,271.3 			"/>
			<g>
				<polygon class="st13" points="350.9,275.3 347.5,271.9 344.1,275.3 344.1,272.4 347.5,269 350.9,272.4 				"/>
			</g>
		</g>
	</g>
	<g>
		<g>
			<polyline class="st12" points="208.5,218.8 269.8,218.8 269.8,255 311.2,255 			"/>
			<g>
				<polygon class="st13" points="307.2,258.4 310.6,255 307.2,251.7 310.1,251.7 313.5,255 310.1,258.4 				"/>
			</g>
		</g>
	</g>
</g>
</svg>
