<?xml version="1.0" encoding="utf-8"?>
<!-- Generator: Adobe Illustrator 13.0.0, SVG Export Plug-In . SVG Version: 6.00 Build 14948)  -->
<!DOCTYPE svg PUBLIC "-//W3C//DTD SVG 1.1//EN" "http://www.w3.org/Graphics/SVG/1.1/DTD/svg11.dtd">
<svg version="1.1" xmlns="http://www.w3.org/2000/svg" xmlns:xlink="http://www.w3.org/1999/xlink" x="0px" y="0px" width="80px"
	 height="140px" viewBox="0 0 80 140" style="enable-background:new 0 0 80 140;" xml:space="preserve">
<g id="Layer_1">
	<path style="fill:#fff;" d="M41,61h-2v19h2V61z M40,0v2c20.987,0,38,17.014,38,38v60c0,20.986-17.014,38-38,38S2,120.986,2,100
		V50H0v50c0,22.092,17.908,40,40,40s40-17.908,40-40V40C80,17.908,62.092,0,40,0z"/>
	<polygon style="fill:#fff;" points="40,1 40,0 39,0 39,19 41,19 41,1 	"/>
	<path style="fill:#fff;" d="M40,18c-6.627,0-12,5.373-12,12v20c0,6.627,5.373,12,12,12s12-5.373,12-12V30
		C52,23.373,46.627,18,40,18z M50,50c0,5.522-4.478,10-10,10s-10-4.478-10-10V30c0-5.522,4.478-10,10-10s10,4.478,10,10V50z"/>
</g>
<g id="Layer_3">
	<path style="fill:#fff;" id="button" d="M39,0.025C17.372,0.558,0,18.244,0,40v10h2V40C2,19.349,18.477,2.557,39,2.025V0.025z"/>
	<polygon style="fill:#fff;" id="arrow2" points="39,109 39,100 36,100 40,96 44,100 41,100 41,109 50,109 50,106 54,110 50,114 50,111 
		41,111 41,120 44,120 40,124 36,120 39,120 39,111 30,111 30,114 26,110 30,106 30,109 	"/>
</g>

<animate 
           xlink:href="#button"
           attributeName="d"
           from="M39,0.025C17.372,0.558,0,18.244,0,40v10h2V40C2,19.349,18.477,2.557,39,2.025V0.025z"
           to="M39,4.025C17.372,4.558,0,22.244,0,44v10h2V44C2,23.349,18.477,6.557,39,6.025V4.025z" 
           dur="3s"
           begin="0s"
           values="M39,0.025C17.372,0.558,0,18.244,0,40v10h2V40C2,19.349,18.477,2.557,39,2.025V0.025z;
           M39,0.025C17.372,0.558,0,18.244,0,40v10h2V40C2,19.349,18.477,2.557,39,2.025V0.025z;
           M39,4.025C17.372,4.558,0,22.244,0,44v10h2V44C2,23.349,18.477,6.557,39,6.025V4.025z; M39,4.025C17.372,4.558,0,22.244,0,44v10h2V44C2,23.349,18.477,6.557,39,6.025V4.025z; M39,0.025C17.372,0.558,0,18.244,0,40v10h2V40C2,19.349,18.477,2.557,39,2.025V0.025z;"
           keyTimes="0; 0.2; 0.3; 0.9; 1"
           repeatCount="indefinite"
           fill="freeze" />

<animate 
           xlink:href="#arrow2"
           attributeName="points"
           from="39,109 39,100 36,100 40,96 44,100 41,100 41,109 50,109 50,106 54,110 50,114 50,111 
		41,111 41,120 44,120 40,124 36,120 39,120 39,111 30,111 30,114 26,110 30,106 30,109"
           to="39,109 39,100 36,100 40,96 44,100 41,100 41,109 50,109 50,106 54,110 50,114 50,111 
		41,111 41,120 44,120 40,124 36,120 39,120 39,111 30,111 30,114 26,110 30,106 30,109" 
           dur="3s"
           begin="0s"
           values="39,109 39,100 36,100 40,96 44,100 41,100 41,109 50,109 50,106 54,110 50,114 50,111 
		41,111 41,120 44,120 40,124 36,120 39,120 39,111 30,111 30,114 26,110 30,106 30,109;
			39,109 39,100 36,100 40,96 44,100 41,100 41,109 50,109 50,106 54,110 50,114 50,111 
		41,111 41,120 44,120 40,124 36,120 39,120 39,111 30,111 30,114 26,110 30,106 30,109; 
           39,103 39,94 36,94 40,90 44,94 41,94 41,103 50,103 50,100 54,104 50,108 50,105 41,105 
		41,114 44,114 40,118 36,114 39,114 39,105 30,105 30,108 26,104 30,100 30,103; 
			45,109 45,100 42,100 46,96 50,100 47,100 47,109 56,109 56,106 60,110 56,114 56,111 
		47,111 47,120 50,120 46,124 42,120 45,120 45,111 36,111 36,114 32,110 36,106 36,109;
			39,115 39,106 36,106 40,102 44,106 41,106 41,115 50,115 50,112 54,116 50,120 50,117 
		41,117 41,126 44,126 40,130 36,126 39,126 39,117 30,117 30,120 26,116 30,112 30,115;
			33,109 33,100 30,100 34,96 38,100 35,100 35,109 44,109 44,106 48,110 44,114 44,111 
		35,111 35,120 38,120 34,124 30,120 33,120 33,111 24,111 24,114 20,110 24,106 24,109;
			39,103 39,94 36,94 40,90 44,94 41,94 41,103 50,103 50,100 54,104 50,108 50,105 41,105 
		41,114 44,114 40,118 36,114 39,114 39,105 30,105 30,108 26,104 30,100 30,103; 
			39,109 39,100 36,100 40,96 44,100 41,100 41,109 50,109 50,106 54,110 50,114 50,111 
		41,111 41,120 44,120 40,124 36,120 39,120 39,111 30,111 30,114 26,110 30,106 30,109;
			39,109 39,100 36,100 40,96 44,100 41,100 41,109 50,109 50,106 54,110 50,114 50,111 
		41,111 41,120 44,120 40,124 36,120 39,120 39,111 30,111 30,114 26,110 30,106 30,109;"
           keyTimes="0; 0.3; 0.4; 0.5; 0.6; 0.7; 0.8; 0.9; 1"
           repeatCount="indefinite"
           fill="freeze" />

</svg>
