<?xml version="1.0" encoding="utf-8"?>
<!-- Generator: Adobe Illustrator 13.0.0, SVG Export Plug-In . SVG Version: 6.00 Build 14948)  -->
<!DOCTYPE svg PUBLIC "-//W3C//DTD SVG 1.1//EN" "http://www.w3.org/Graphics/SVG/1.1/DTD/svg11.dtd">
<svg version="1.1" id="Layer_1" xmlns="http://www.w3.org/2000/svg" xmlns:xlink="http://www.w3.org/1999/xlink" x="0px" y="0px"
	 width="32px" height="24px" viewBox="0 0 32 24" enable-background="new 0 0 32 24" xml:space="preserve">
<path d="M177.5,138.5v13h25v-13H177.5z M201.5,143.5v7h-23v-3h12v-1h-12v-7h23v3h-12v1H201.5z"/>
<rect x="201.5" y="145.5" fill="#FFFFFF" width="1" height="3"/>
<g>
	<rect x="1" y="1" fill="#EFEFEF" stroke="#000000" stroke-width="0.25" width="30" height="22"/>
	<line fill="none" stroke="#000000" stroke-width="0.25" x1="25" y1="23" x2="25" y2="3"/>
	<path fill="none" stroke="#000000" stroke-width="0.25" d="M31,23"/>
	<path fill="none" stroke="#000000" stroke-width="0.25" d="M31,1"/>
	<line fill="none" stroke="#000000" stroke-width="0.25" x1="27" y1="9" x2="31" y2="9"/>
	<line fill="none" stroke="#000000" stroke-width="0.25" x1="25" y1="15" x2="29" y2="15"/>
	<line fill="none" stroke="#000000" stroke-width="0.25" x1="19" y1="23" x2="19" y2="3"/>
	<line fill="none" stroke="#000000" stroke-width="0.25" x1="25" y1="3" x2="25" y2="23"/>
	<line fill="none" stroke="#000000" stroke-width="0.25" x1="21" y1="9" x2="21" y2="23"/>
	<line fill="none" stroke="#000000" stroke-width="0.25" x1="23" y1="9" x2="23" y2="23"/>
	<line fill="none" stroke="#000000" stroke-width="0.25" x1="13" y1="23" x2="13" y2="3"/>
	<line fill="none" stroke="#000000" stroke-width="0.25" x1="7" y1="3" x2="7" y2="23"/>
	<line fill="none" stroke="#000000" stroke-width="0.25" x1="7" y1="23" x2="7" y2="3"/>
	<line fill="none" stroke="#000000" stroke-width="0.25" x1="10" y1="9" x2="10" y2="15"/>
	<line fill="none" stroke="#000000" stroke-width="0.25" x1="19" y1="23" x2="19" y2="3"/>
	<line fill="none" stroke="#000000" stroke-width="0.25" x1="13" y1="3" x2="13" y2="23"/>
	<line fill="none" stroke="#000000" stroke-width="0.25" x1="16" y1="9" x2="16" y2="15"/>
	<line fill="none" stroke="#000000" stroke-width="0.25" x1="3" y1="9" x2="5" y2="9"/>
	<line fill="none" stroke="#000000" stroke-width="0.25" x1="3" y1="23" x2="3" y2="15"/>
	<line fill="none" stroke="#000000" stroke-width="0.25" x1="5" y1="15" x2="7" y2="15"/>
	<rect x="29" y="18" fill="#FFFFFF" stroke="#000000" stroke-width="0.25" width="2" height="5"/>
	<polygon fill="#FFFFFF" stroke="#000000" stroke-width="0.25" points="29,23 27,23 27,21 28,21 28,18 29,18 	"/>
	<polyline fill="none" stroke="#000000" stroke-width="0.25" points="31,20 30,20 30,19 	"/>
	<polyline fill="none" stroke="#000000" stroke-width="0.25" points="29,21 30,21 30,22 	"/>
	<line fill="none" stroke="#000000" stroke-width="0.25" x1="28" y1="22" x2="28" y2="21"/>
</g>
<g>
	<rect x="45.5" y="31.5" fill="#EFEFEF" stroke="#000000" stroke-width="0.25" width="30" height="22"/>
	<line fill="none" stroke="#000000" stroke-width="0.25" x1="69.5" y1="53.5" x2="69.5" y2="33.5"/>
	<path fill="none" stroke="#000000" stroke-width="0.25" d="M75.5,53.5"/>
	<path fill="none" stroke="#000000" stroke-width="0.25" d="M75.5,31.5"/>
	<line fill="none" stroke="#000000" stroke-width="0.25" x1="71.5" y1="39.5" x2="75.5" y2="39.5"/>
	<line fill="none" stroke="#000000" stroke-width="0.25" x1="69.5" y1="45.5" x2="73.5" y2="45.5"/>
	<line fill="none" stroke="#000000" stroke-width="0.25" x1="63.5" y1="53.5" x2="63.5" y2="33.5"/>
	<line fill="none" stroke="#000000" stroke-width="0.25" x1="69.5" y1="33.5" x2="69.5" y2="53.5"/>
	<line fill="none" stroke="#000000" stroke-width="0.25" x1="65.5" y1="39.5" x2="65.5" y2="53.5"/>
	<line fill="none" stroke="#000000" stroke-width="0.25" x1="67.5" y1="39.5" x2="67.5" y2="53.5"/>
	<line fill="none" stroke="#000000" stroke-width="0.25" x1="57.5" y1="53.5" x2="57.5" y2="33.5"/>
	<line fill="none" stroke="#000000" stroke-width="0.25" x1="51.5" y1="33.5" x2="51.5" y2="53.5"/>
	<line fill="none" stroke="#000000" stroke-width="0.25" x1="51.5" y1="53.5" x2="51.5" y2="33.5"/>
	<line fill="none" stroke="#000000" stroke-width="0.25" x1="54.5" y1="39.5" x2="54.5" y2="45.5"/>
	<line fill="none" stroke="#000000" stroke-width="0.25" x1="63.5" y1="53.5" x2="63.5" y2="33.5"/>
	<line fill="none" stroke="#000000" stroke-width="0.25" x1="57.5" y1="33.5" x2="57.5" y2="53.5"/>
	<line fill="none" stroke="#000000" stroke-width="0.25" x1="60.5" y1="39.5" x2="60.5" y2="45.5"/>
	<line fill="none" stroke="#000000" stroke-width="0.25" x1="47.5" y1="39.5" x2="49.5" y2="39.5"/>
	<line fill="none" stroke="#000000" stroke-width="0.25" x1="47.5" y1="53.5" x2="47.5" y2="45.5"/>
	<line fill="none" stroke="#000000" stroke-width="0.25" x1="49.5" y1="45.5" x2="51.5" y2="45.5"/>
	<rect x="73.5" y="48.5" fill="#FFFFFF" stroke="#000000" stroke-width="0.25" width="2" height="5"/>
	<polygon fill="#FFFFFF" stroke="#000000" stroke-width="0.25" points="73.5,53.5 71.5,53.5 71.5,51.5 72.5,51.5 72.5,48.5 
		73.5,48.5 	"/>
	<polyline fill="none" stroke="#000000" stroke-width="0.25" points="75.5,50.5 74.5,50.5 74.5,49.5 	"/>
	<polyline fill="none" stroke="#000000" stroke-width="0.25" points="73.5,51.5 74.5,51.5 74.5,52.5 	"/>
	<line fill="none" stroke="#000000" stroke-width="0.25" x1="72.5" y1="52.5" x2="72.5" y2="51.5"/>
</g>
<path d="M70.5,61.5h-1v4h1V61.5z M66.5,58.5v10h7v-10H66.5z M72.5,67.5h-5v-8h5V67.5z"/>
<path d="M93.5,61.5h-3v1h3V61.5z M87.5,58.5v10h7v-10H87.5z M93.5,67.5h-5v-8h5V67.5z"/>
<path d="M76.5,61.5h-1v4h1V61.5z M72.5,58.5v10h7v-10H72.5z M78.5,67.5h-5v-8h5V67.5z"/>
<path d="M82.5,61.5h-1v7h1V61.5z M78.5,58.5v10h10v-10H78.5z M87.5,67.5h-8v-8h8V67.5z"/>
<rect x="84.5" y="61.5" width="1" height="7"/>
<rect x="88.5" y="64.5" width="3" height="1"/>
<path d="M64.5,61.5h-2v1h2V61.5z M59.5,58.5v10h8v-10H59.5z M66.5,67.5h-6v-8h6V67.5z"/>
<rect x="62.5" y="65.5" width="1" height="2"/>
<rect x="64.5" y="64.5" width="3" height="1"/>
<polygon fill="none" stroke="#000000" stroke-width="0.25" points="99.5,65.5 99.5,67.5 101.5,67.5 101.5,62.5 100.5,62.5 
	100.5,65.5 "/>
<line fill="none" stroke="#000000" stroke-width="0.25" x1="100.5" y1="66.5" x2="100.5" y2="63.5"/>
<rect x="101.5" y="62.5" fill="none" stroke="#000000" stroke-width="0.25" width="2" height="5"/>
<polyline fill="none" stroke="#000000" stroke-width="0.25" points="102.5,63.5 102.5,64.5 103.5,64.5 "/>
<polyline fill="none" stroke="#000000" stroke-width="0.25" points="102.5,66.5 102.5,65.5 101.5,65.5 "/>
<path d="M63.5,78.5h-2v1h2V78.5z M71.5,78.5h-1v5h1V78.5z M57.5,74.5v13h46v-13H57.5z M102.5,78.5h-4v1h4v7h-7v-3h4v-1h-4v-6h-1v10
	h-3v-8h-1v8h-3v-8h-1v8h-3v-10h-1v10h-7v-10h-1v10h-7v-10h-1v6h-2v1h2v3h-4v-3h-1v3h-3v-11h44V78.5z M79.5,78.5h-1v5h1V78.5z"/>
<rect x="57.5" y="74.5" width="46" height="13"/>
<path d="M120.5,103.5v-3h-55v11h4v-3h1v3h50v-7h-5v-1H120.5z M71.5,104.5h-2v-1h2V104.5z M90.5,103.5h1v5h-1V103.5z M80.5,103.5h1v5
	h-1V103.5z M75.5,110.5v-2h-2v-1h2v-6h1v9H75.5z M85.5,110.5v-9h1v9H85.5z M95.5,110.5v-9h1v9H95.5z M100.5,110.5v-7h1v7H100.5z
	 M105.5,110.5v-7h1v7H105.5z M117.5,107.5v1h-6v2h-1v-9h1v6H117.5z"/>
<rect x="157.5" y="73.5" width="57" height="13"/>
<path d="M100.5,119.5h-1v7h1V119.5z M90.5,119.5h-1v5h1V119.5z M95.5,117.5h-1v9h1V117.5z M110.5,124.5h6v-1h-6v-6h-1v9h1V124.5z
	 M105.5,119.5h-1v7h1V119.5z M80.5,119.5h-1v5h1V119.5z M63.5,115.5v13h57v-13H63.5z M119.5,119.5h-5v1h5v7h-50v-3h-1v3h-4v-11h55
	V119.5z M70.5,119.5h-2v1h2V119.5z M74.5,126.5h1v-9h-1v6h-2v1h2V126.5z M85.5,117.5h-1v9h1V117.5z"/>
<path d="M93.5,138.5v13h25v-13H93.5z M117.5,150.5h-23v-11h23V150.5z M106.5,142.5h-1v5h1V142.5z"/>
<path d="M117.5,138.5v13h25v-13H117.5z M141.5,150.5h-23v-11h23V150.5z M130.5,142.5h-1v5h1V142.5z"/>
<path d="M69.5,138.5v13h25v-13H69.5z M93.5,150.5h-23v-11h23V150.5z"/>
<rect x="158.5" y="108.5" width="11" height="3"/>
<rect x="59.5" y="132.5" width="4" height="4"/>
<rect x="81.5" y="147.5" width="1" height="4"/>
<rect x="81.5" y="142.5" width="2" height="1"/>
<rect x="90.5" y="146.5" width="4" height="1"/>
<path d="M141.5,138.5v13h37v-13H141.5z M177.5,150.5h-11v-8h-1v8h-11v-8h-1v8h-11v-11h35V150.5z"/>
<rect x="194.5" y="150.5" fill="#FFFFFF" width="8" height="1"/>
<polygon fill="#0066CC" points="197.5,146.5 197.5,150.5 196.5,150.5 196.5,149.5 195.5,149.5 195.5,151.5 198.5,151.5 198.5,146.5 
	"/>
<polygon fill="#0066CC" points="202.5,147.5 202.5,146.5 199.5,146.5 199.5,149.5 201.5,149.5 201.5,150.5 199.5,150.5 199.5,151.5 
	202.5,151.5 202.5,148.5 200.5,148.5 200.5,147.5 "/>
<path fill="#0066CC" d="M112.5,170.5v-5h-1v5H112.5z M100.5,172.5v-9h-1v6h-3v1h3v2H100.5z M75.5,161.5v13h125v-1h-112v-3h-1v3h-11
	v-11h131v3h-12v1h12v2h1v-7H75.5z M183.5,163.5v9h1v-2h12v-1h-12v-6H183.5z M205.5,172.5h2v1h-2v1h3v-3h-2v-1h2v-1h-3V172.5z
	 M203.5,173.5h-1v-1h-1v2h3v-5h-1V173.5z M89.5,166.5v-1h-2v1H89.5z M172.5,172.5v-7h-1v7H172.5z M160.5,172.5v-7h-1v7H160.5z
	 M148.5,172.5v-9h-1v9H148.5z M136.5,170.5v-5h-1v5H136.5z M124.5,172.5v-9h-1v9H124.5z"/>
</svg>
