<?xml version="1.0" encoding="utf-8"?>
<!-- Generator: Adobe Illustrator 13.0.0, SVG Export Plug-In . SVG Version: 6.00 Build 14948)  -->
<!DOCTYPE svg PUBLIC "-//W3C//DTD SVG 1.1//EN" "http://www.w3.org/Graphics/SVG/1.1/DTD/svg11.dtd">
<svg version="1.1" id="Layer_1" xmlns="http://www.w3.org/2000/svg" xmlns:xlink="http://www.w3.org/1999/xlink" x="0px" y="0px"
	 width="32px" height="24px" viewBox="0 0 32 24" enable-background="new 0 0 32 24" xml:space="preserve">
<g>
	<rect x="1" y="1" fill="#EFEFEF" stroke="#000000" stroke-width="0.25" width="30" height="22"/>
	<line fill="none" stroke="#000000" stroke-width="0.25" x1="25" y1="23" x2="25" y2="3"/>
	<path fill="none" stroke="#000000" stroke-width="0.25" d="M31,23"/>
	<path fill="none" stroke="#000000" stroke-width="0.25" d="M31,1"/>
	<line fill="none" stroke="#000000" stroke-width="0.25" x1="27" y1="9" x2="31" y2="9"/>
	<line fill="none" stroke="#000000" stroke-width="0.25" x1="25" y1="15" x2="29" y2="15"/>
	<line fill="none" stroke="#000000" stroke-width="0.25" x1="19" y1="23" x2="19" y2="3"/>
	<line fill="none" stroke="#000000" stroke-width="0.25" x1="25" y1="3" x2="25" y2="23"/>
	<line fill="none" stroke="#000000" stroke-width="0.25" x1="21" y1="9" x2="21" y2="23"/>
	<line fill="none" stroke="#000000" stroke-width="0.25" x1="23" y1="9" x2="23" y2="23"/>
	<line fill="none" stroke="#000000" stroke-width="0.25" x1="13" y1="23" x2="13" y2="3"/>
	<line fill="none" stroke="#000000" stroke-width="0.25" x1="7" y1="3" x2="7" y2="23"/>
	<line fill="none" stroke="#000000" stroke-width="0.25" x1="7" y1="23" x2="7" y2="3"/>
	<line fill="none" stroke="#000000" stroke-width="0.25" x1="10" y1="9" x2="10" y2="15"/>
	<line fill="none" stroke="#000000" stroke-width="0.25" x1="19" y1="23" x2="19" y2="3"/>
	<line fill="none" stroke="#000000" stroke-width="0.25" x1="13" y1="3" x2="13" y2="23"/>
	<line fill="none" stroke="#000000" stroke-width="0.25" x1="16" y1="9" x2="16" y2="15"/>
	<line fill="none" stroke="#000000" stroke-width="0.25" x1="3" y1="9" x2="5" y2="9"/>
	<line fill="none" stroke="#000000" stroke-width="0.25" x1="3" y1="23" x2="3" y2="15"/>
	<line fill="none" stroke="#000000" stroke-width="0.25" x1="5" y1="15" x2="7" y2="15"/>
	<rect x="29" y="18" fill="#FFFFFF" stroke="#000000" stroke-width="0.25" width="2" height="5"/>
	<polygon fill="#FFFFFF" stroke="#000000" stroke-width="0.25" points="29,23 27,23 27,21 28,21 28,18 29,18 	"/>
	<polyline fill="none" stroke="#000000" stroke-width="0.25" points="31,20 30,20 30,19 	"/>
	<polyline fill="none" stroke="#000000" stroke-width="0.25" points="29,21 30,21 30,22 	"/>
	<line fill="none" stroke="#000000" stroke-width="0.25" x1="28" y1="22" x2="28" y2="21"/>
</g>
</svg>
